<svg xmlns="http://www.w3.org/2000/svg" width="449.681" height="332.184" viewBox="0 0 449.681 332.184">
  <g id="Group_113" data-name="Group 113" transform="translate(-542.999 -226)">
    <path id="Path_39" data-name="Path 39" d="M71.563,374.719s-1.968,4.614,8.821,7.838a128.41,128.41,0,0,0,16.808,4.071s2.307.95,1.215,2.613-4.567,4.309-3.434,6.6,4.112,2.714,8.143,1.459,12.893-3.59,13.707-3.8,2.036.034,1.493,1.289-6.528,8.964-2.714,11.576,14.454-2.64,15.607-3.2,1.744-.407,2.158.129-1.839,2.931-3.447,5.191-3.074,5.164-.74,6.487,10.857.326,23.038-10.179l5.334-5.232-1.751-7.3c-4.709-15.383-11.373-20.771-14.053-20.9s-2.986,3.115-2.836,5.883.767,6.005.136,6.229-1.187.047-1.886-1.045-6.867-11.2-11.5-11.04-3.705,9.867-3.9,11.224-1.4.9-1.954.3-6.826-7.356-9.561-10.538-5.395-4.485-7.654-3.1-.645,5.429-.611,7.4-2.429,1.561-2.429,1.561a131.071,131.071,0,0,0-16.388-5.517c-10.83-3.033-11.624,2.036-11.624,2.036" transform="translate(487.822 115.873)" fill="#ebebeb"/>
    <path id="Path_40" data-name="Path 40" d="M163.714,404.735c-7.946-2.253-22-6.5-34.085-10.077s-23.017-6.786-30.95-9.113l-9.4-2.714-2.558-.733-.679-.2-.224-.081.224.054.679.176,2.565.679c2.233.6,5.429,1.506,9.419,2.633,7.946,2.26,18.9,5.462,30.977,9.045s26.152,7.892,34.078,10.172" transform="translate(483.194 111.662)" fill="#e0e0e0"/>
    <path id="Path_41" data-name="Path 41" d="M113.48,400.844a2.469,2.469,0,0,1,.468-.278c.305-.163.753-.394,1.31-.679,1.113-.55,2.674-1.262,4.4-2.036l4.445-1.934,1.357-.59a2.374,2.374,0,0,1,.5-.2,2.714,2.714,0,0,1-.461.278c-.305.163-.753.394-1.316.679-1.12.536-2.714,1.235-4.418,1.995l-4.431,1.961-1.357.6A2.225,2.225,0,0,1,113.48,400.844Z" transform="translate(474.304 107.384)" fill="#e0e0e0"/>
    <path id="Path_42" data-name="Path 42" d="M128.549,387.429c-.054,0-1.676-3.121-3.617-7.03s-3.461-7.1-3.393-7.139,1.676,3.121,3.617,7.03S128.637,387.395,128.549,387.429Z" transform="translate(471.715 114.414)" fill="#e0e0e0"/>
    <path id="Path_43" data-name="Path 43" d="M157.416,397a3.032,3.032,0,0,1-.122-.536c-.068-.394-.163-.889-.265-1.473-.224-1.249-.543-2.965-.964-4.852s-.848-3.576-1.174-4.8c-.156-.577-.285-1.065-.387-1.452a2.712,2.712,0,0,1-.115-.543,2.924,2.924,0,0,1,.2.516c.115.339.271.821.455,1.432.366,1.215.828,2.9,1.249,4.8s.712,3.617.9,4.872c.088.624.156,1.133.19,1.486a1.981,1.981,0,0,1,.034.55Z" transform="translate(461.154 111.17)" fill="#e0e0e0"/>
    <path id="Path_44" data-name="Path 44" d="M144.09,411.69a2.036,2.036,0,0,1,.36-.36c.278-.258.624-.563,1.031-.93.882-.767,2.1-1.825,3.468-2.979s2.606-2.185,3.515-2.925l1.079-.869a2.308,2.308,0,0,1,.421-.3,2.545,2.545,0,0,1-.36.366l-1.031.923c-.882.774-2.11,1.825-3.474,2.979s-2.6,2.192-3.508,2.931l-1.086.869A2.131,2.131,0,0,1,144.09,411.69Z" transform="translate(464.465 104.748)" fill="#e0e0e0"/>
    <path id="Path_45" data-name="Path 45" d="M166.86,421.79a3.262,3.262,0,0,1,.461-.461l1.357-1.188c1.12-1,2.68-2.361,4.411-3.854s3.311-2.843,4.465-3.807l1.357-1.133a3.583,3.583,0,0,1,.523-.387,3.48,3.48,0,0,1-.461.455l-1.323,1.194c-1.12.991-2.68,2.355-4.411,3.854s-3.311,2.836-4.458,3.8l-1.357,1.133a3.211,3.211,0,0,1-.563.394Z" transform="translate(457.146 102.296)" fill="#e0e0e0"/>
    <path id="Path_46" data-name="Path 46" d="M182.759,403.055a4.224,4.224,0,0,1-.17-.679c-.109-.482-.238-1.106-.407-1.859-.339-1.574-.821-3.739-1.418-6.107s-1.187-4.513-1.629-6.06c-.21-.74-.387-1.357-.516-1.832a4.281,4.281,0,0,1-.17-.679,5.01,5.01,0,0,1,.251.679c.149.421.353,1.038.6,1.805.475,1.534,1.1,3.671,1.7,6.053s1.052,4.553,1.357,6.107c.149.787.265,1.432.333,1.873a3.5,3.5,0,0,1,.075.7Z" transform="translate(453.421 110.37)" fill="#e0e0e0"/>
    <path id="Path_47" data-name="Path 47" d="M517.48,171.275c-9.5-6.372-11.807-18.464-11.631-29.382,0-1.819-.2-3.739.631-5.347s2.843-2.714,4.485-2c1.357.611,1.981,2.171,2.762,3.461a10.6,10.6,0,0,0,4.343,4,4.039,4.039,0,0,0,3.739.271c1.561-.9,1.7-3.067,1.663-4.879l-.244-10.124a16.864,16.864,0,0,1,.455-5.388,5.6,5.6,0,0,1,3.461-3.861,3.4,3.4,0,0,1,4.255,2.212,17.711,17.711,0,0,1,.1,2.253,1.893,1.893,0,0,0,1.147,1.771,2.19,2.19,0,0,0,1.975-.862,24.36,24.36,0,0,0,4.207-6.6,33.656,33.656,0,0,1,3.909-6.786,9.742,9.742,0,0,1,6.569-3.841,5.913,5.913,0,0,1,6.107,3.9c.726,2.538-.746,5.157-2.328,7.247a40.37,40.37,0,0,1-8.272,8.177,3.352,3.352,0,0,0-1.357,1.534c-.373,1.215.794,2.4,1.995,2.769a20.408,20.408,0,0,0,4.234.4,4.1,4.1,0,0,1,3.515,2.036c.774,1.839-.74,3.807-2.246,5.1a34.5,34.5,0,0,1-10.138,6.107,11.637,11.637,0,0,0-3.78,1.92,3.344,3.344,0,0,0-1,3.854,3.42,3.42,0,0,0,3.739,1.357,24.307,24.307,0,0,0,3.943-1.588c2.477-.984,5.693-.869,7.322,1.249a5.741,5.741,0,0,1,.679,5.062,13.124,13.124,0,0,1-2.667,4.519,34.811,34.811,0,0,1-14.718,10.7c-5.741,2.1-11.081,2.714-16.856.74" transform="translate(348.193 200.267)" fill="#ebebeb"/>
    <path id="Path_48" data-name="Path 48" d="M527,165.093a162.972,162.972,0,0,1,6.107-17.582c.624-1.527,1.235-3.04,1.846-4.526s1.208-2.959,1.886-4.356a81.339,81.339,0,0,1,4.37-7.844c1.506-2.423,3.026-4.675,4.465-6.786s2.823-4.01,4.16-5.707a64,64,0,0,1,6.881-7.539c.875-.821,1.581-1.439,2.036-1.846l.55-.468a1.406,1.406,0,0,1,.2-.149,1.118,1.118,0,0,1-.176.176l-.529.489c-.468.427-1.154,1.059-2.036,1.893a67.372,67.372,0,0,0-6.786,7.593c-1.316,1.7-2.714,3.624-4.119,5.72s-2.931,4.343-4.431,6.786a81.552,81.552,0,0,0-4.329,7.817c-.679,1.4-1.269,2.857-1.88,4.343l-1.846,4.526a166.083,166.083,0,0,0-6.141,17.541" transform="translate(341.388 199.582)" fill="#e0e0e0"/>
    <path id="Path_49" data-name="Path 49" d="M540.213,143.525a3.674,3.674,0,0,1-.19-.767c-.1-.5-.231-1.228-.373-2.124-.285-1.8-.6-4.3-.936-7.05s-.679-5.245-.991-7.03c-.156-.9-.292-1.622-.387-2.117a3.857,3.857,0,0,1-.115-.787,3.524,3.524,0,0,1,.237.76c.143.489.305,1.208.5,2.1.373,1.785.76,4.275,1.093,7.037s.617,5.178.841,7.057c.1.848.2,1.561.265,2.138A3.269,3.269,0,0,1,540.213,143.525Z" transform="translate(338.104 194.644)" fill="#e0e0e0"/>
    <path id="Path_50" data-name="Path 50" d="M564.837,145.911a4.56,4.56,0,0,1-.923.129c-.6.068-1.466.156-2.524.3-2.131.265-5.055.74-8.265,1.4s-6.107,1.4-8.143,1.988c-1.038.285-1.866.543-2.443.712a4.187,4.187,0,0,1-.909.238,5.359,5.359,0,0,1,.869-.36c.563-.21,1.357-.5,2.416-.821,2.036-.645,4.926-1.411,8.143-2.083a80.833,80.833,0,0,1,8.306-1.31c1.072-.115,1.941-.17,2.538-.19a5.51,5.51,0,0,1,.936,0Z" transform="translate(336.686 187.496)" fill="#e0e0e0"/>
    <path id="Path_51" data-name="Path 51" d="M521.545,177.352a2.334,2.334,0,0,1-.163-.285c-.109-.224-.244-.5-.414-.835-.353-.726-.841-1.791-1.425-3.115-1.167-2.646-2.674-6.358-4.275-10.47s-3.067-7.831-4.18-10.5c-.543-1.3-1-2.368-1.357-3.155l-.353-.862a1.359,1.359,0,0,1-.109-.312,2.881,2.881,0,0,1,.17.285l.414.835c.353.726.841,1.791,1.425,3.115,1.167,2.646,2.674,6.351,4.275,10.47s3.094,7.81,4.207,10.525c.543,1.3.991,2.361,1.357,3.155l.353.862a.89.89,0,0,1,.075.285Z" transform="translate(347.087 186.876)" fill="#e0e0e0"/>
    <path id="Path_52" data-name="Path 52" d="M558.123,175.83a1.086,1.086,0,0,1-.305.136l-.9.319-3.291,1.126c-2.782.957-6.609,2.327-10.857,3.841S534.706,184.1,531.917,185c-1.4.448-2.538.8-3.325,1.031l-.916.258a1.568,1.568,0,0,1-.326.068,1.086,1.086,0,0,1,.305-.136l.9-.319c.828-.278,1.941-.679,3.291-1.133,2.782-.95,6.609-2.321,10.857-3.834s8.068-2.843,10.857-3.746c1.4-.448,2.538-.8,3.325-1.031l.916-.258a1.567,1.567,0,0,1,.326-.068Z" transform="translate(341.275 177.872)" fill="#e0e0e0"/>
    <path id="Path_53" data-name="Path 53" d="M667.17,268.24a6.894,6.894,0,0,1-2.531,4.75,12.174,12.174,0,0,1-4.96,2.361c-3.468.869-7.539.238-10.959-.807,1.4-3.712,5.429-5.958,7.532-6.962,3.339-1.595,10.348-2.45,10.918.679" transform="translate(302.265 148.842)" fill="#ebebeb"/>
    <path id="Path_54" data-name="Path 54" d="M642.43,285.942a5.876,5.876,0,0,1,5.89-.176,7.8,7.8,0,0,1,3.705,4.75,3.284,3.284,0,0,1-.176,2.762,2.524,2.524,0,0,1-2.375.93,5.116,5.116,0,0,1-2.4-1.113c-2.436-1.859-4.445-4.105-4.648-7.159" transform="translate(304.286 142.763)" fill="#ebebeb"/>
    <path id="Path_55" data-name="Path 55" d="M629.26,285.478a11.4,11.4,0,0,1,2.321-.434,10.9,10.9,0,0,1,2.585,0,23.754,23.754,0,0,1,3.115.482,11.78,11.78,0,0,1,5.1,2.565,8.652,8.652,0,0,1,1.16,1.3,1.817,1.817,0,0,1,.319.556c-.061.041-.556-.726-1.662-1.642a12.7,12.7,0,0,0-5.015-2.4,29.522,29.522,0,0,0-3.06-.5,12.492,12.492,0,0,0-2.518-.081,15.447,15.447,0,0,1-2.348.149Z" transform="translate(308.52 142.793)" fill="#e0e0e0"/>
    <path id="Path_56" data-name="Path 56" d="M654.685,270.88a7.171,7.171,0,0,1-1.079.529c-.679.312-1.717.76-2.986,1.3-2.524,1.072-6.039,2.517-9.955,4.024s-7.505,2.755-10.118,3.61c-1.31.428-2.368.76-3.108.977a6.65,6.65,0,0,1-1.16.3,6.948,6.948,0,0,1,1.113-.448l3.06-1.092c2.585-.923,6.155-2.226,10.07-3.725l10-3.909,3.033-1.174a6.784,6.784,0,0,1,1.133-.387Z" transform="translate(309.477 147.321)" fill="#e0e0e0"/>
    <path id="Path_57" data-name="Path 57" d="M637.42,274.088a13.741,13.741,0,0,0,5.286-11.386c-.054-1.113-.4-2.409-1.445-2.775s-2.138.428-2.85,1.276a11.726,11.726,0,0,0-1.276,12.961" transform="translate(306.433 150.871)" fill="#ebebeb"/>
    <path id="Path_58" data-name="Path 58" d="M638.516,267.19a1.876,1.876,0,0,1,0,.631,16.108,16.108,0,0,1-.156,1.7,15.605,15.605,0,0,1-1.676,5.395,9.86,9.86,0,0,1-1.961,2.456,9.561,9.561,0,0,1-3.746,2.036,1.989,1.989,0,0,1-.618.122c0-.081.841-.319,2.1-.977a10.113,10.113,0,0,0,2.036-1.439,9.826,9.826,0,0,0,1.859-2.375A17.323,17.323,0,0,0,638.1,269.5,21.6,21.6,0,0,1,638.516,267.19Z" transform="translate(308.166 148.507)" fill="#e0e0e0"/>
    <path id="Path_59" data-name="Path 59" d="M107.4,97.334a8.143,8.143,0,0,1,6.005,2.158,14.393,14.393,0,0,1,3.61,5.429c1.608,3.909,1.561,8.781.923,12.961-4.587-1-7.9-5.327-9.439-7.634-2.436-3.637-4.628-11.692-1.1-12.893" transform="translate(476.853 203.108)" fill="#ebebeb"/>
    <path id="Path_60" data-name="Path 60" d="M133.225,127.689a6.969,6.969,0,0,1-1.215-6.874,9.229,9.229,0,0,1,4.94-5.144,3.881,3.881,0,0,1,3.264-.265,2.959,2.959,0,0,1,1.493,2.619,6.012,6.012,0,0,1-.9,3c-1.758,3.162-4.071,5.9-7.586,6.664" transform="translate(468.483 197.378)" fill="#ebebeb"/>
    <path id="Path_61" data-name="Path 61" d="M134.876,140.7a14.039,14.039,0,0,1-.909-2.646,12.968,12.968,0,0,1-.448-3.026,28.706,28.706,0,0,1,.034-3.725,13.9,13.9,0,0,1,2.138-6.413,10.552,10.552,0,0,1,1.316-1.588c.366-.326.577-.482.6-.461a17.472,17.472,0,0,0-1.635,2.226,14.929,14.929,0,0,0-1.954,6.277,33.723,33.723,0,0,0-.061,3.671,14.127,14.127,0,0,0,.333,2.959A19.286,19.286,0,0,1,134.876,140.7Z" transform="translate(467.877 194.906)" fill="#e0e0e0"/>
    <path id="Path_62" data-name="Path 62" d="M111.53,106.17a7.56,7.56,0,0,1,.8,1.16c.5.767,1.188,1.886,2.036,3.278,1.69,2.782,3.983,6.643,6.406,10.979s4.513,8.313,5.958,11.23c.726,1.452,1.3,2.64,1.676,3.467a7.4,7.4,0,0,1,.543,1.3,8.748,8.748,0,0,1-.712-1.221l-1.805-3.393c-1.52-2.87-3.651-6.826-6.073-11.149l-6.284-11.02c-.774-1.357-1.411-2.484-1.9-3.352a8.5,8.5,0,0,1-.645-1.283Z" transform="translate(474.931 200.263)" fill="#e0e0e0"/>
    <path id="Path_63" data-name="Path 63" d="M120.1,137.368a16.232,16.232,0,0,0-14.25-4.241c-1.289.251-2.714.875-3,2.165s.862,2.423,1.975,3.121a13.89,13.89,0,0,0,15.417-.713" transform="translate(477.735 191.689)" fill="#ebebeb"/>
    <path id="Path_64" data-name="Path 64" d="M111.61,136.891a2.165,2.165,0,0,1,.733-.122c.475-.054,1.167-.088,2.036-.1a18.322,18.322,0,0,1,6.6,1.038,11.271,11.271,0,0,1,3.2,1.88,11.136,11.136,0,0,1,2.036,2.26,10.788,10.788,0,0,1,.977,1.778,2.375,2.375,0,0,1,.251.679c-.088.041-.509-.936-1.5-2.294a12.133,12.133,0,0,0-2.036-2.117,11.834,11.834,0,0,0-3.094-1.771,20.6,20.6,0,0,0-6.44-1.147A24.782,24.782,0,0,1,111.61,136.891Z" transform="translate(474.905 190.463)" fill="#e0e0e0"/>
    <path id="Path_65" data-name="Path 65" d="M345.243,458.493a7.261,7.261,0,0,1,.034-5.686,12.758,12.758,0,0,1,3.474-4.648c2.809-2.511,6.915-3.915,10.626-4.628.516,4.16-2.138,8.231-3.617,10.179-2.334,3.135-8.455,7.369-10.518,4.75" transform="translate(399.99 91.827)" fill="#ebebeb"/>
    <path id="Path_66" data-name="Path 66" d="M362.491,430.986a6.175,6.175,0,0,1-5.429,3.06,8.218,8.218,0,0,1-5.8-2.626,3.454,3.454,0,0,1-1.187-2.667,2.646,2.646,0,0,1,1.757-2.036,5.368,5.368,0,0,1,2.782-.136c3.189.536,6.168,1.642,7.858,4.4" transform="translate(398.255 97.314)" fill="#ebebeb"/>
    <path id="Path_67" data-name="Path 67" d="M373.5,427.26a11.691,11.691,0,0,1-1.954,1.547,11.494,11.494,0,0,1-2.409,1.276A25.7,25.7,0,0,1,366,431.162a12.4,12.4,0,0,1-6.033.109,9.345,9.345,0,0,1-1.724-.638c-.38-.21-.577-.339-.563-.366a15.672,15.672,0,0,0,2.355.712,13.28,13.28,0,0,0,5.863-.224,32.57,32.57,0,0,0,3.1-1.031,12.446,12.446,0,0,0,2.389-1.167,19,19,0,0,1,2.117-1.3Z" transform="translate(395.813 97.056)" fill="#e0e0e0"/>
    <path id="Path_68" data-name="Path 68" d="M352,448.861a7.547,7.547,0,0,1,.746-1.025c.5-.638,1.235-1.554,2.151-2.674,1.832-2.246,4.4-5.32,7.329-8.652s5.653-6.256,7.675-8.34c1-1.045,1.832-1.88,2.416-2.443a7.538,7.538,0,0,1,.936-.848,7.085,7.085,0,0,1-.814.964c-.6.679-1.357,1.506-2.321,2.531-1.968,2.131-4.655,5.1-7.58,8.421l-7.41,8.557-2.26,2.592A7.461,7.461,0,0,1,352,448.861Z" transform="translate(397.638 97.821)" fill="#e0e0e0"/>
    <path id="Path_69" data-name="Path 69" d="M374.395,436.117a14.5,14.5,0,0,0,.679,13.225c.59,1.011,1.554,2.036,2.714,1.88s1.785-1.445,2.036-2.592a12.391,12.391,0,0,0-5.178-12.73" transform="translate(390.85 94.279)" fill="#ebebeb"/>
    <path id="Path_70" data-name="Path 70" d="M376.84,443.651a4.033,4.033,0,0,1-.326-.584c-.183-.387-.414-.95-.679-1.663a16.476,16.476,0,0,1-1.086-5.863,10.369,10.369,0,0,1,.624-3.257,9.865,9.865,0,0,1,1.3-2.368,9.307,9.307,0,0,1,1.208-1.357c.312-.292.5-.441.516-.421s-.631.679-1.479,1.941a10.986,10.986,0,0,0-1.181,2.334,10.68,10.68,0,0,0-.57,3.128,18.471,18.471,0,0,0,.95,5.761,21.249,21.249,0,0,1,.719,2.348Z" transform="translate(390.325 96.774)" fill="#e0e0e0"/>
    <path id="Path_71" data-name="Path 71" d="M48.2,217.007c-2.857-16.489,2.877-34.7,16.035-45.03s33.61-11.095,46.36-.265c8.964,7.62,13.158,19.251,18.5,29.735s13.429,21.1,25.053,22.909c10.029,1.561,20.113-3.922,30.176-2.606,9.826,1.283,18.05,9.317,20.88,18.81s.679,20.045-4.356,28.554-12.893,15.139-21.409,20.16c-27.475,16.157-63.935,15.607-90.929-1.31s-43.32-49.536-40.714-81.314" transform="translate(495.517 181.705)" fill="#2ac768"/>
    <g id="Group_78" data-name="Group 78" transform="translate(542.999 345.611)" opacity="0.7">
      <path id="Path_72" data-name="Path 72" d="M48.2,217.007c-2.857-16.489,2.877-34.7,16.035-45.03s33.61-11.095,46.36-.265c8.964,7.62,13.158,19.251,18.5,29.735s13.429,21.1,25.053,22.909c10.029,1.561,20.113-3.922,30.176-2.606,9.826,1.283,18.05,9.317,20.88,18.81s.679,20.045-4.356,28.554-12.893,15.139-21.409,20.16c-27.475,16.157-63.935,15.607-90.929-1.31s-43.32-49.536-40.714-81.314" transform="translate(-47.482 -163.906)" fill="#fff"/>
    </g>
    <path id="Path_73" data-name="Path 73" d="M261.95,438.081c8.923-6.107,13.117-19.516,7.539-28.765h0c-5.646-8.414-14.413-15.125-24.429-16.544s-21.138,3.325-25.6,12.425a23.323,23.323,0,0,0-.489,18.586,29.538,29.538,0,0,0,12.343,14.189C240.534,443.55,253.054,444.175,261.95,438.081Z" transform="translate(440.94 108.221)" fill="#2ac768"/>
    <g id="Group_79" data-name="Group 79" transform="translate(658.218 500.746)" opacity="0.7">
      <path id="Path_74" data-name="Path 74" d="M261.95,438.081c8.923-6.107,13.117-19.516,7.539-28.765h0c-5.646-8.414-14.413-15.125-24.429-16.544s-21.138,3.325-25.6,12.425a23.323,23.323,0,0,0-.489,18.586,29.538,29.538,0,0,0,12.343,14.189C240.534,443.55,253.054,444.175,261.95,438.081Z" transform="translate(-217.277 -392.525)" fill="#fff"/>
    </g>
    <path id="Path_75" data-name="Path 75" d="M643.32,356.416c-.55-14.284-7.627-28.446-19.475-36.439s-28.344-9.086-40.552-1.656c-7.607,4.628-13.124,12-17.718,19.624-2.518,4.18-5.144,8.788-9.67,10.613-5.883,2.382-12.35-.862-18.573-2.1a29.219,29.219,0,0,0-33.929,21c-5.429,22.522,10.362,38.6,27.245,48.355,18.871,10.911,42.75,10.9,63.27,3.624,13.47-4.75,26.023-12.621,35.2-23.58S643.876,370.7,643.32,356.416Z" transform="translate(349.321 133.68)" fill="#2ac768"/>
    <g id="Group_80" data-name="Group 80" transform="translate(851.638 446.999)" opacity="0.7">
      <path id="Path_76" data-name="Path 76" d="M643.32,356.416c-.55-14.284-7.627-28.446-19.475-36.439s-28.344-9.086-40.552-1.656c-7.607,4.628-13.124,12-17.718,19.624-2.518,4.18-5.144,8.788-9.67,10.613-5.883,2.382-12.35-.862-18.573-2.1a29.219,29.219,0,0,0-33.929,21c-5.429,22.522,10.362,38.6,27.245,48.355,18.871,10.911,42.75,10.9,63.27,3.624,13.47-4.75,26.023-12.621,35.2-23.58S643.876,370.7,643.32,356.416Z" transform="translate(-502.316 -313.319)" fill="#fff"/>
    </g>
    <path id="Path_77" data-name="Path 77" d="M635.722,187.229c-1.744-11.4-12.737-21.647-24.211-20.547h0c-10.715,1.554-21.226,6.894-27.224,15.906s-6.562,21.884.136,30.387a24.883,24.883,0,0,0,17.643,9.059,31.541,31.541,0,0,0,19.36-5.334C631.094,210.389,637.466,198.642,635.722,187.229Z" transform="translate(324.483 180.839)" fill="#2ac768"/>
    <g id="Group_81" data-name="Group 81" transform="translate(904.075 347.44)" opacity="0.7">
      <path id="Path_78" data-name="Path 78" d="M635.722,187.229c-1.744-11.4-12.737-21.647-24.211-20.547h0c-10.715,1.554-21.226,6.894-27.224,15.906s-6.562,21.884.136,30.387a24.883,24.883,0,0,0,17.643,9.059,31.541,31.541,0,0,0,19.36-5.334C631.094,210.389,637.466,198.642,635.722,187.229Z" transform="translate(-579.592 -166.601)" fill="#fff"/>
    </g>
    <path id="Path_136" data-name="Path 136" d="M442.139,298.473a8.416,8.416,0,0,1-1.357-.753,18.711,18.711,0,0,0-3.244-1.656,8.244,8.244,0,0,0-3.542-.516c-.923.081-1.466.319-1.486.265a3.257,3.257,0,0,1,1.459-.5,7.573,7.573,0,0,1,3.685.441,14.568,14.568,0,0,1,3.257,1.771,6.019,6.019,0,0,1,1.228.95Z" transform="translate(371.76 139.488)" fill="#fafafa"/>
    <path id="Path_137" data-name="Path 137" d="M484.331,290.83a2.322,2.322,0,0,1-.319.2l-.936.55c-.407.238-.916.516-1.52.807s-1.276.679-2.036.977-1.615.712-2.551,1.052-1.934.679-2.993,1.031a54.329,54.329,0,0,1-7.071,1.635,55.09,55.09,0,0,1-7.234.6c-1.12,0-2.178,0-3.169-.075s-1.914-.136-2.755-.224-1.588-.21-2.253-.312-1.228-.2-1.69-.305l-1.059-.238a1.419,1.419,0,0,1-.366-.1,1.447,1.447,0,0,1,.38.034l1.072.176c.461.081,1.025.176,1.69.251s1.411.2,2.253.258,1.751.156,2.714.183,2.036.041,3.149.041a52.643,52.643,0,0,0,14.25-2.212c1.059-.339,2.07-.638,2.986-1s1.785-.679,2.558-1.011,1.459-.679,2.036-.93,1.12-.536,1.54-.753l.964-.489A1.357,1.357,0,0,1,484.331,290.83Z" transform="translate(366.658 140.908)" fill="#fafafa"/>
    <path id="Path_140" data-name="Path 140" d="M484.453,286.72a1.541,1.541,0,0,1-.346.163l-1,.407c-.434.176-.97.387-1.6.6s-1.357.489-2.151.726c-1.6.516-3.535,1.038-5.7,1.534a69.346,69.346,0,0,1-7.125,1.208,71.529,71.529,0,0,1-7.213.461c-2.219.041-4.228-.054-5.9-.19-.835-.047-1.588-.142-2.253-.21s-1.235-.142-1.7-.217l-1.072-.163a1.356,1.356,0,0,1-.394-.054,1.461,1.461,0,0,1,.38,0l1.072.1c.468.054,1.038.115,1.7.163s1.411.129,2.253.156c1.669.109,3.664.149,5.876.115s4.641-.2,7.179-.482,4.933-.719,7.1-1.174,4.071-.977,5.7-1.459c.807-.224,1.52-.475,2.158-.679s1.174-.387,1.615-.543l1.025-.346a1.5,1.5,0,0,1,.394-.115Z" transform="translate(366.78 142.23)" fill="#fafafa"/>
    <path id="Path_141" data-name="Path 141" d="M443.6,290.953a24.481,24.481,0,0,0-3.617-1.961A24.879,24.879,0,0,0,436,287.974a3.426,3.426,0,0,1,1.228,0,11.3,11.3,0,0,1,2.884.679,11.055,11.055,0,0,1,2.592,1.439A3.23,3.23,0,0,1,443.6,290.953Z" transform="translate(370.638 141.844)" fill="#fafafa"/>
    <path id="Path_145" data-name="Path 145" d="M556.989,345.985a13.9,13.9,0,0,1-4-.577c-12.893-3.861-12.214-13.164-11.692-20.642.5-6.969.523-11.353-5.225-13.51-7.607-2.85-10.735-.081-15.478,4.112-5.646,4.994-12.662,11.21-29.694,8.686-8.821-1.31-23.072-5.971-40.518-20.751a139.308,139.308,0,0,1-17.188-17.236l2.633-2.117c.265.326,26.315,32.429,55.568,36.758,15.471,2.294,21.572-3.108,26.96-7.871,4.831-4.275,9.391-8.313,18.905-4.75,8.4,3.155,7.878,10.464,7.41,16.917-.543,7.553-1.011,14.074,9.29,17.161,11.6,3.474,26.865-14.929,35.964-25.894,3.257-3.915,5.517-6.752,7.322-8.224l2.551,2.036c-1.126,1.357-4.261,4.75-7.274,8.353C583.25,329.625,569.665,345.985,556.989,345.985Z" transform="translate(371.541 143.12)" fill="#2ac768"/>
    <path id="Path_146" data-name="Path 146" d="M539.361,335.994a2.786,2.786,0,0,1-.407.3,10.384,10.384,0,0,1-1.188.679,18.2,18.2,0,0,1-4.268,1.466,17.92,17.92,0,0,1-4.492.346,13.074,13.074,0,0,1-1.357-.142,1.71,1.71,0,0,1-.489-.115,16.768,16.768,0,0,1,1.859,0,21.274,21.274,0,0,0,8.652-1.791A8.527,8.527,0,0,1,539.361,335.994Z" transform="translate(341.337 126.395)" fill="#fff"/>
    <path id="Path_147" data-name="Path 147" d="M571.143,320.768a7.506,7.506,0,0,1-1.106-.041,7.6,7.6,0,0,0-4.879,1.683,7.522,7.522,0,0,1-.848.712,2.49,2.49,0,0,1,.679-.889,6.48,6.48,0,0,1,5.049-1.737,2.464,2.464,0,0,1,1.106.271Z" transform="translate(329.396 131.382)" fill="#fff"/>
    <path id="Path_149" data-name="Path 149" d="M673.327,321.27a41.392,41.392,0,0,1-5.347,5.334,43.791,43.791,0,0,1,5.347-5.334Z" transform="translate(296.073 131.124)" fill="#fff"/>
    <path id="Path_150" data-name="Path 150" d="M432.168,282.989h0a3.9,3.9,0,0,1-5.51.265l-5.958-5.429,5.252-5.775,5.951,5.429A3.9,3.9,0,0,1,432.168,282.989Z" transform="translate(375.556 146.945)" fill="#2ac768"/>
    <path id="Path_151" data-name="Path 151" d="M432.062,282.883a9.6,9.6,0,0,0,.55-.909,3.848,3.848,0,0,0,.183-2.83,3.8,3.8,0,0,0-1.079-1.676l-1.8-1.608c-1.269-1.154-2.68-2.423-4.18-3.773h.231l-2.626,2.891-2.626,2.884v-.231l4.153,3.78,1.778,1.635a3.821,3.821,0,0,0,1.764.916,3.861,3.861,0,0,0,2.8-.455,9.1,9.1,0,0,0,.855-.638,2.953,2.953,0,0,1-.794.733,3.881,3.881,0,0,1-2.9.563,4.01,4.01,0,0,1-1.893-.936c-.563-.5-1.16-1.045-1.8-1.608l-4.187-3.78-.122-.109.115-.122,2.619-2.891,2.626-2.877.109-.122.122.109,4.153,3.807,1.778,1.635a3.963,3.963,0,0,1,1.113,1.8,3.888,3.888,0,0,1-.285,2.938,2.837,2.837,0,0,1-.658.875Z" transform="translate(375.661 147.051)" fill="#263238"/>
    <path id="Path_152" data-name="Path 152" d="M388.048,234.517l-10.274-8.5a1.893,1.893,0,0,1-.251-2.667h0a1.893,1.893,0,0,1,2.667-.251l10.267,8.5Z" transform="translate(389.573 162.817)" fill="#2ac768"/>
    <path id="Path_153" data-name="Path 153" d="M373.813,252.806l-10.26-8.5a1.893,1.893,0,0,1-.258-2.667h0a1.886,1.886,0,0,1,2.667-.251l10.274,8.489Z" transform="translate(394.146 156.94)" fill="#2ac768"/>
    <g id="Group_88" data-name="Group 88" transform="translate(766.661 385.486)" opacity="0.6">
      <path id="Path_154" data-name="Path 154" d="M388.048,234.517l-10.274-8.5a1.893,1.893,0,0,1-.251-2.667h0a1.893,1.893,0,0,1,2.667-.251l10.267,8.5Z" transform="translate(-377.088 -222.668)" fill="#fff"/>
    </g>
    <g id="Group_89" data-name="Group 89" transform="translate(757.008 397.894)" opacity="0.6">
      <path id="Path_155" data-name="Path 155" d="M373.813,252.806l-10.26-8.5a1.893,1.893,0,0,1-.258-2.667h0a1.886,1.886,0,0,1,2.667-.251l10.274,8.489Z" transform="translate(-362.862 -240.954)" fill="#fff"/>
    </g>
    <path id="Path_156" data-name="Path 156" d="M387.941,234.384a2.037,2.037,0,0,1,.156-.224l.461-.6,1.717-2.165v.143l-4.825-3.922-3.02-2.484-1.622-1.357-.835-.679a1.669,1.669,0,0,0-.9-.394,1.717,1.717,0,0,0-1.52.584,1.744,1.744,0,0,0-.366,1.547,1.6,1.6,0,0,0,.366.679,5.5,5.5,0,0,0,.617.556l1.276,1.059,4.4,3.7,2.979,2.538.814.679a2.758,2.758,0,0,1,.292.271,1.791,1.791,0,0,1-.285-.2l-.814-.679c-.753-.6-1.785-1.425-3.033-2.436l-4.519-3.671-1.3-1.065a7.458,7.458,0,0,1-.679-.59,2.036,2.036,0,0,1,1.812-3.393,2.118,2.118,0,0,1,1.079.468l.828.679,1.615,1.357,3.006,2.5,4.75,4,.081.068-.068.075-1.839,2.144-.489.543a1.2,1.2,0,0,1-.129.271Z" transform="translate(389.682 162.951)" fill="#263238"/>
    <path id="Path_157" data-name="Path 157" d="M373.723,252.71a1.3,1.3,0,0,1,.163-.224c.122-.163.271-.36.461-.6l1.717-2.165v.142l-4.825-3.929-3.02-2.477L366.6,242.1l-.835-.679a1.778,1.778,0,0,0-.909-.394,1.737,1.737,0,0,0-1.52.59,1.717,1.717,0,0,0-.36,1.547,1.629,1.629,0,0,0,.36.679,5.551,5.551,0,0,0,.624.55l1.269,1.065,4.4,3.7,2.979,2.538.814.679a1.784,1.784,0,0,1,.285.271s-.1-.061-.278-.2l-.821-.645-3.033-2.436-4.513-3.671-1.3-1.072a5.818,5.818,0,0,1-.679-.59,1.961,1.961,0,0,1-.434-.841,2.036,2.036,0,0,1,.427-1.839,2.076,2.076,0,0,1,1.812-.679,2.124,2.124,0,0,1,1.079.468c.278.238.556.461.835.679l1.615,1.357,3.006,2.5,4.75,4,.075.068-.061.075c-.774.889-1.391,1.608-1.846,2.138l-.482.55A.5.5,0,0,1,373.723,252.71Z" transform="translate(394.235 157.036)" fill="#263238"/>
    <path id="Path_158" data-name="Path 158" d="M410.106,247.466l.271-.326a3.63,3.63,0,0,0-5.049-5.164L390.292,229.45l-17.2,20.581,15.39,12.214a3.63,3.63,0,0,0,.74,4.75h0a3.624,3.624,0,0,0,5.049-.421,10.457,10.457,0,0,0,14.46-1.812l2.47-3.081A10.464,10.464,0,0,0,410.106,247.466Z" transform="translate(390.858 160.638)" fill="#2ac768"/>
    <path id="Path_159" data-name="Path 159" d="M409.994,247.354l.129.115.36.346a5,5,0,0,1,.55.6l.332.407.339.5a9.924,9.924,0,0,1,1.357,2.83,10.457,10.457,0,0,1-1.513,9.045c-.55.78-1.187,1.52-1.812,2.328a19.854,19.854,0,0,1-2.083,2.4,10.443,10.443,0,0,1-6.284,2.782,10.62,10.62,0,0,1-7.281-2.076h.21a3.827,3.827,0,0,1-2.477,1.283,3.759,3.759,0,0,1-2.789-.841h0a3.8,3.8,0,0,1-.774-4.967l.034.21-11.936-9.52-3.481-2.769-.136-.1.109-.136c6.27-7.464,12.126-14.481,17.222-20.561l.095-.115.109.1,15,12.56h-.115a3.7,3.7,0,0,1,5.985,2.952,3.583,3.583,0,0,1-.679,2.036,4.517,4.517,0,0,1-.353.427l-.129.143s.163-.2.441-.6a3.671,3.671,0,0,0,.611-2.036,3.583,3.583,0,0,0-1.513-2.911,3.481,3.481,0,0,0-2.036-.679,3.549,3.549,0,0,0-2.246.767l-.061.048-.061-.048-15.064-12.486h.2L373.106,250v-.238l3.474,2.769,11.909,9.5.115.088-.081.122a3.481,3.481,0,0,0,.679,4.553h0a3.474,3.474,0,0,0,4.838-.4l.1-.1.109.081a10.341,10.341,0,0,0,13.212-.7,20.238,20.238,0,0,0,2.036-2.361c.631-.8,1.283-1.547,1.825-2.307a10.409,10.409,0,0,0,.285-11.692c-.115-.176-.224-.346-.332-.5l-.326-.407a6.238,6.238,0,0,0-.529-.624l-.346-.36Q409.987,247.354,409.994,247.354Z" transform="translate(390.971 160.75)" fill="#263238"/>
    <rect id="Rectangle_37" data-name="Rectangle 37" width="13.768" height="2.694" transform="matrix(0.771, 0.637, -0.637, 0.771, 773.138, 399.724)" fill="#e0e0e0"/>
    <path id="Path_160" data-name="Path 160" d="M420.1,256a5.8,5.8,0,0,1-.57.8c-.38.509-.943,1.228-1.649,2.11-1.4,1.771-3.393,4.18-5.612,6.82s-4.194,4.981-5.693,6.752l-1.724,2.036a5.423,5.423,0,0,1-.679.719,5.8,5.8,0,0,1,.57-.8c.38-.509.943-1.228,1.649-2.11,1.4-1.771,3.393-4.18,5.612-6.786l5.693-6.786,1.73-2.036A5.2,5.2,0,0,1,420.1,256Z" transform="translate(380.868 152.104)" fill="#263238"/>
    <path id="Path_161" data-name="Path 161" d="M412.5,247.87a5.693,5.693,0,0,1-.611.841c-.414.529-1.025,1.289-1.778,2.219-1.52,1.859-3.651,4.4-6.026,7.179s-4.506,5.252-6.107,7.118c-.76.869-1.357,1.595-1.859,2.144a6.405,6.405,0,0,1-.719.76,7.078,7.078,0,0,1,.617-.841c.414-.529,1.018-1.289,1.778-2.219,1.52-1.859,3.651-4.4,6.026-7.179l6.107-7.111,1.859-2.151A6.785,6.785,0,0,1,412.5,247.87Z" transform="translate(383.688 154.717)" fill="#263238"/>
    <circle id="Ellipse_25" data-name="Ellipse 25" cx="1.432" cy="1.432" r="1.432" transform="translate(703.066 360.298)" fill="#263238"/>
    <path id="Path_225" data-name="Path 225" d="M142.145,268.066a41.048,41.048,0,0,1-8.766-.948c-5.993-1.318-10.682-3.252-14.258-5.9a45.3,45.3,0,0,1-13.877,2.518c-15.39.414-29.321-4.4-46.4-18.22q-1.289-2.755-2.484-5.829C72.8,253,90.6,260.724,105.156,260.358a42.423,42.423,0,0,0,10.973-1.744c-3.97-4.139-5.971-9.548-5.944-16.116,0-7.2,3.094-10.464,5.659-11.929,3.63-2.083,8.6-1.8,12.954.74a14.675,14.675,0,0,1,7.641,12.676,13.924,13.924,0,0,1-5.483,10.857,41.721,41.721,0,0,1-8.068,4.852,40.158,40.158,0,0,0,26.872,4.234c14.46-2.87,26.539-8,35.9-15.248A58.3,58.3,0,0,0,208.4,200.664V200.6a52.778,52.778,0,0,0-24.89-41.631c-12.391-7.43-28.269-9.466-44.7-5.734-10.213,2.321-24.11,7.824-32.3,20.873-8.821,14.06-6.433,31.506.848,39.615,5.191,5.788,15.139,3.7,23.139,2.036l2.633-.543c8.6-1.71,43.483-18.07,43.619-18.118l.74,2.782c-.563.2-34.865,16.9-43.7,18.654-.841.163-1.71.346-2.6.536-8.821,1.853-19.855,4.16-26.349-3.074-4.7-5.239-7.308-12.8-7.356-21.287a42.75,42.75,0,0,1,6.161-22.393c8.821-14.026,23.58-19.909,34.417-22.393,17.283-3.922,34.044-1.751,47.188,6.107,15.2,9.161,25.582,26.58,26.505,44.372A61.736,61.736,0,0,1,187.7,251.367c-9.778,7.573-22.325,12.893-37.322,15.892a42.112,42.112,0,0,1-8.238.808Zm-20.839-35.5a7.593,7.593,0,0,0-3.786.943c-2.572,1.473-3.936,4.587-3.956,9.011,0,6.331,1.961,11.224,6.107,14.861a38.51,38.51,0,0,0,9.2-5.225,10.545,10.545,0,0,0,4.173-8.177,11.352,11.352,0,0,0-5.965-9.738A11.624,11.624,0,0,0,121.306,232.57Z" transform="translate(492.663 186.811)" fill="#2ac768"/>
    <path id="Path_226" data-name="Path 226" d="M149.391,314.482a3.937,3.937,0,0,1-1.269-.618,23.073,23.073,0,0,1-2.748-2.036,21.367,21.367,0,0,1-2.45-2.375,3.671,3.671,0,0,1-.794-1.174c.041,0,.36.407.97,1.018s1.479,1.425,2.484,2.273,1.961,1.581,2.667,2.076a9.949,9.949,0,0,1,1.14.835Z" transform="translate(465.095 135.3)" fill="#263238"/>
    <path id="Path_227" data-name="Path 227" d="M154.155,311.466a4.111,4.111,0,0,1-1.527-.387,12.839,12.839,0,0,1-3.257-1.948,16.224,16.224,0,0,1-2.653-2.714,4.98,4.98,0,0,1-.828-1.357c.041,0,.38.461,1.011,1.188a20.713,20.713,0,0,0,2.714,2.592,15.512,15.512,0,0,0,3.142,1.995C153.585,311.269,154.169,311.411,154.155,311.466Z" transform="translate(463.886 136.335)" fill="#263238"/>
    <path id="Path_228" data-name="Path 228" d="M137.643,290.359a1.73,1.73,0,0,1-.217-.55,15.423,15.423,0,0,1-.394-1.561,20.127,20.127,0,0,1,.74-10.477,13.575,13.575,0,0,1,.6-1.486,2.116,2.116,0,0,1,.285-.516c.054,0-.278.794-.679,2.076a23.891,23.891,0,0,0-.957,5.144,23.5,23.5,0,0,0,.231,5.218C137.473,289.538,137.7,290.346,137.643,290.359Z" transform="translate(466.854 145.749)" fill="#fff"/>
    <path id="Path_229" data-name="Path 229" d="M120.446,314.431a5.87,5.87,0,0,1-1.635.285,17.846,17.846,0,0,1-7.878-1.12,6.107,6.107,0,0,1-1.493-.726,12.889,12.889,0,0,1,1.574.5,22.654,22.654,0,0,0,3.841.9,23.111,23.111,0,0,0,3.943.21A13.685,13.685,0,0,1,120.446,314.431Z" transform="translate(475.603 133.824)" fill="#fff"/>
    <path id="Path_230" data-name="Path 230" d="M259.538,282a8.138,8.138,0,0,1-.991,1.479,35.964,35.964,0,0,1-5.985,6.141,7.8,7.8,0,0,1-1.452,1.025,12,12,0,0,1,1.282-1.181c.814-.726,1.92-1.751,3.088-2.938s2.158-2.334,2.864-3.169A12.366,12.366,0,0,1,259.538,282Z" transform="translate(430.065 143.747)" fill="#fff"/>
    <path id="Path_231" data-name="Path 231" d="M119.991,219.728a4.566,4.566,0,0,1-.346-.9,23.8,23.8,0,0,1-.679-2.531,33.128,33.128,0,0,1-.679-3.841,34.7,34.7,0,0,1,.251-9.534,33.249,33.249,0,0,1,.869-3.807,26.063,26.063,0,0,1,.848-2.49,4.641,4.641,0,0,1,.394-.882,6.027,6.027,0,0,1-.271.93c-.2.584-.461,1.439-.74,2.5a36.6,36.6,0,0,0-.794,3.793,42.07,42.07,0,0,0-.428,4.75,38.988,38.988,0,0,0,.183,4.75,36.521,36.521,0,0,0,.59,3.827c.224,1.079.434,1.947.6,2.538A5.788,5.788,0,0,1,119.991,219.728Z" transform="translate(472.827 171.473)" fill="#fff"/>
    <path id="Path_232" data-name="Path 232" d="M126.021,186.2a5.923,5.923,0,0,1-.821,1.812,6.046,6.046,0,0,1-1.12,1.649,6.046,6.046,0,0,1,.828-1.812A6.3,6.3,0,0,1,126.021,186.2Z" transform="translate(470.896 174.539)" fill="#fff"/>
    <path id="Path_258" data-name="Path 258" d="M281.322,211.734l-6.033-31.011a2.328,2.328,0,0,0-4.567.889l.278,1.411-12.479,3.067a8.326,8.326,0,0,0-5.829,5.2l-7.525,1.852a4.865,4.865,0,0,0-3.563,5.883l.679,2.714-7.363,1.819a3.826,3.826,0,0,0,1.832,7.43l7.369-1.812.523,2.124a4.865,4.865,0,0,0,5.883,3.563l7.661-1.886v-.061a8.319,8.319,0,0,0,7.39,1.757l11.074-2.714.129.679a2.328,2.328,0,0,0,4.567-.889Z" transform="translate(436.205 176.881)" fill="#2ac768"/>
    <path id="Path_259" data-name="Path 259" d="M281.249,211.644a1.7,1.7,0,0,1,.061.523,2.327,2.327,0,0,1-.529,1.439,2.35,2.35,0,0,1-4.065-.794c-.088-.3-.129-.6-.2-.916l.088.054-8.143,2.036-2.436.611a9.424,9.424,0,0,1-2.653.366,8.468,8.468,0,0,1-5.347-2.036l.2-.129v.054l.034.129h-.129c-2.585.631-5.293,1.357-8.2,2a5.028,5.028,0,0,1-4.255-1.493,4.926,4.926,0,0,1-1.2-2.07c-.21-.774-.387-1.547-.584-2.328l.183.115-6.216,1.568c-.536.115-1.045.278-1.622.366a3.976,3.976,0,0,1-3.915-5.951,4.187,4.187,0,0,1,2.911-1.961l6.935-1.7-.122.2c-.136-.563-.278-1.147-.428-1.737a11.332,11.332,0,0,1-.373-1.852,5.027,5.027,0,0,1,2.606-4.77,6.65,6.65,0,0,1,1.764-.611l6.962-1.71-.109.1a8.577,8.577,0,0,1,3.508-4.282,8.673,8.673,0,0,1,2.538-1.038l2.579-.638,9.8-2.4-.109.17c-.075-.366-.142-.74-.217-1.106a3.074,3.074,0,0,1-.075-1.147A2.463,2.463,0,0,1,274,178.883a2.429,2.429,0,0,1,1.357,1.663l1.486,7.675c.923,4.818,1.73,9.025,2.4,12.506s1.174,6.2,1.534,8.075c.17.923.3,1.635.387,2.131.041.238.075.414.095.55a.978.978,0,0,1,0,.19.835.835,0,0,1-.047-.183,3.776,3.776,0,0,0-.115-.543l-.441-2.131c-.373-1.873-.916-4.6-1.608-8.055s-1.513-7.681-2.463-12.493q-.713-3.61-1.513-7.661a2.178,2.178,0,0,0-4.275.17,2.653,2.653,0,0,0,.068,1.052c.075.366.149.733.217,1.106v.136l-.136.034-9.792,2.423c-1.69.468-3.508.679-5.021,1.635a8.272,8.272,0,0,0-3.393,4.126l-.034.081h-.081l-6.962,1.717a6.243,6.243,0,0,0-1.683.577,4.75,4.75,0,0,0-1.357,1.12,4.669,4.669,0,0,0-1.072,3.332,10.572,10.572,0,0,0,.366,1.8c.143.6.292,1.181.428,1.744l.041.156-.163.041-6.894,1.7a3.807,3.807,0,0,0-2.714,1.805,3.644,3.644,0,0,0,3.59,5.429c.516-.068,1.059-.237,1.588-.36l6.209-1.52.149-.034.034.143c.2.78.373,1.568.577,2.321a4.641,4.641,0,0,0,1.126,1.948,4.75,4.75,0,0,0,4,1.418c2.857-.638,5.612-1.357,8.184-1.975l-.088.156v-.054l-.1-.387.3.258a8.211,8.211,0,0,0,5.191,1.975,9.127,9.127,0,0,0,2.592-.353l2.436-.59,8.143-1.975h.075v.075c.068.312.109.631.19.909a2.219,2.219,0,0,0,.394.753,2.355,2.355,0,0,0,1.3.8,2.3,2.3,0,0,0,2.762-2.144Q281.268,211.9,281.249,211.644Z" transform="translate(436.278 176.971)" fill="#263238"/>
    <path id="Path_260" data-name="Path 260" d="M295.236,213.869c-.088,0-1.54-6.419-3.244-14.372s-3.02-14.426-2.925-14.447,1.54,6.413,3.25,14.372S295.331,213.849,295.236,213.869Z" transform="translate(417.867 174.909)" fill="#263238"/>
    <path id="Path_261" data-name="Path 261" d="M267.963,218.747c-.088,0-1.357-4.811-2.891-10.789s-2.653-10.857-2.565-10.857,1.357,4.811,2.891,10.8S268.052,218.747,267.963,218.747Z" transform="translate(426.404 171.036)" fill="#263238"/>
    <path id="Path_262" data-name="Path 262" d="M248.975,220.01a16.8,16.8,0,0,1-1.079-3.664,31.292,31.292,0,0,1-.746-3.746,17.019,17.019,0,0,1,1.072,3.671,31.989,31.989,0,0,1,.753,3.739Z" transform="translate(431.339 166.054)" fill="#263238"/>
    <path id="Path_263" data-name="Path 263" d="M255.753,199.786c0,.048-.726.156-1.893.4-.584.122-1.276.278-2.036.489a10.267,10.267,0,0,0-2.348.923,3.25,3.25,0,0,0-1.663,1.724,5.021,5.021,0,0,0-.041,2.036c.149,1.174.346,1.893.3,1.907a6.222,6.222,0,0,1-.536-1.873,5.022,5.022,0,0,1,0-2.144,2.463,2.463,0,0,1,.679-1.12,5.292,5.292,0,0,1,1.106-.814,9.6,9.6,0,0,1,2.429-.936c.774-.2,1.479-.326,2.036-.421A7.465,7.465,0,0,1,255.753,199.786Z" transform="translate(431.252 170.175)" fill="#fff"/>
    <path id="Path_265" data-name="Path 265" d="M241.351,215.084a3.278,3.278,0,0,1-1.31.523c-.848.231-2.036.326-3.318.6a6.616,6.616,0,0,0-1.7.6,4.3,4.3,0,0,0-1.16.882,6.243,6.243,0,0,0-.74,1.154,2.11,2.11,0,0,1,.556-1.3,4.071,4.071,0,0,1,1.194-1,6.141,6.141,0,0,1,1.778-.679c1.31-.278,2.5-.333,3.339-.5A7.169,7.169,0,0,1,241.351,215.084Z" transform="translate(435.849 165.26)" fill="#fff"/>
    <path id="Path_266" data-name="Path 266" d="M292.271,179.832c0,.054-.251.048-.611.143a2.456,2.456,0,0,0-1.188.733,2.375,2.375,0,0,0-.536,1.3c-.041.366,0,.611-.048.618s-.17-.21-.19-.624a2.192,2.192,0,0,1,.516-1.506,2.233,2.233,0,0,1,1.4-.746C292.033,179.7,292.278,179.791,292.271,179.832Z" transform="translate(417.663 176.619)" fill="#fff"/>
    <path id="Path_282" data-name="Path 282" d="M413.28,173.14a.5.5,0,0,1-.122.081l-.387.21-1.5.78-5.564,2.843-18.674,9.405-.122.068-.088-.115c-.516-.74-1.065-1.52-1.629-2.307l-2.314-3.284.217.048-17.405,10.05-5.184,2.959-1.411.78c-.149.081-.265.149-.366.2s-.129.068-.129.061,0,0,.115-.088l.353-.224,1.357-.835,5.137-3.04,17.344-10.145.129-.081.088.129c.746,1.045,1.527,2.158,2.327,3.278.556.794,1.106,1.574,1.629,2.307l-.21-.054,18.715-9.31L411.2,174.1l1.527-.733.394-.176Z" transform="translate(395.517 178.737)" fill="#263238"/>
    <path id="Path_283" data-name="Path 283" d="M413.746,209.26a1.873,1.873,0,0,1-.366.1l-1.072.238-3.976.841-13.307,2.579-.163.034v-.163l-.3-1.649c-.061-.373-.129-.746-.19-1.086l.19.136c-5.395.923-10.179,2.036-13.571,2.959-1.717.448-3.087.835-4.071,1.1l-1.093.305a1.852,1.852,0,0,1-.387.081,2.034,2.034,0,0,1,.366-.149l1.072-.36c.943-.305,2.307-.726,4.017-1.2a137.494,137.494,0,0,1,13.605-3.067h.163v.163c.061.346.129.719.2,1.086.1.57.2,1.126.292,1.649l-.2-.136,13.327-2.477,3.99-.679,1.086-.176A1.357,1.357,0,0,1,413.746,209.26Z" transform="translate(390.104 167.127)" fill="#263238"/>
    <path id="Path_284" data-name="Path 284" d="M361.049,174.55c.081.041-1.642,3.773-3.861,8.333s-4.071,8.224-4.16,8.184,1.649-3.766,3.861-8.333S360.968,174.509,361.049,174.55Z" transform="translate(397.308 178.284)" fill="#263238"/>
    <path id="Path_285" data-name="Path 285" d="M385.581,201.508c0,.088-4.268,1.418-9.588,2.972s-9.663,2.714-9.683,2.653,4.261-1.418,9.588-2.972S385.554,201.42,385.581,201.508Z" transform="translate(393.038 169.62)" fill="#263238"/>
    <path id="Path_286" data-name="Path 286" d="M344.658,157.34a3.574,3.574,0,0,1,.278.679c.176.5.407,1.167.679,1.981.59,1.751,1.391,4.166,2.341,7.01l.068.2h-.217l-5.3-.109.17-.2c.122.679.258,1.357.394,2.11.869,4.75,1.649,9.106,2.232,12.3.265,1.54.482,2.8.638,3.732.061.407.115.746.156,1.018a1.3,1.3,0,0,1,.034.36,1.4,1.4,0,0,1-.1-.346c-.054-.271-.129-.6-.217-1.011l-.74-3.712c-.6-3.183-1.425-7.505-2.334-12.282-.129-.719-.265-1.425-.387-2.1l-.041-.2h.2l5.3.136-.143.2-2.226-7.05c-.251-.828-.455-1.5-.6-2.036A5.52,5.52,0,0,1,344.658,157.34Z" transform="translate(400.752 183.816)" fill="#263238"/>
    <path id="Path_287" data-name="Path 287" d="M311.24,229.243c-.041-.081,3.393-1.778,7.688-3.786s7.79-3.569,7.831-3.488-3.393,1.785-7.688,3.793S311.281,229.324,311.24,229.243Z" transform="translate(410.739 163.043)" fill="#263238"/>
    <path id="Path_288" data-name="Path 288" d="M334.82,236.456a34.07,34.07,0,0,1,2.931-3.786,36.018,36.018,0,0,1,3.2-3.569,32.986,32.986,0,0,1-2.938,3.786A34.61,34.61,0,0,1,334.82,236.456Z" transform="translate(403.16 160.75)" fill="#263238"/>
    <path id="Path_289" data-name="Path 289" d="M347.526,260.314c-.088,0,.5-6.616,1.316-14.759s1.554-14.739,1.649-14.725-.5,6.616-1.316,14.759S347.621,260.321,347.526,260.314Z" transform="translate(399.078 160.194)" fill="#263238"/>
    <path id="Path_290" data-name="Path 290" d="M330.18,188.12a15.2,15.2,0,0,1,1.568,2.775,14.833,14.833,0,0,1,1.262,2.925,30.971,30.971,0,0,1-2.83-5.7Z" transform="translate(404.651 173.922)" fill="#263238"/>
    <text id="Page_not_found" data-name="Page not found" transform="translate(701 316)" fill="#072e2a" font-size="17" font-family="Montserrat-Medium, Montserrat" font-weight="500"><tspan x="0" y="0">Page not found</tspan></text>
    <text id="_404" data-name="404" transform="translate(712 289)" fill="#072e2a" font-size="62" font-family="Nunito-Bold, Nunito" font-weight="700"><tspan x="0" y="0">404</tspan></text>
  </g>
</svg>
