<svg xmlns="http://www.w3.org/2000/svg" width="15.607" height="16" viewBox="0 0 15.607 16">
  <g id="Group_74" data-name="Group 74" transform="translate(-860 -314)">
    <path id="Path_1" data-name="Path 1" d="M15.142,2.681a2.006,2.006,0,0,0-1.535-.708H2.828L2.8,1.742A1.991,1.991,0,0,0,.815,0H.667A.662.662,0,0,0,0,.658a.662.662,0,0,0,.667.658H.815a.664.664,0,0,1,.662.581l.917,7.7A3.318,3.318,0,0,0,5.7,12.5h6.962a.658.658,0,1,0,0-1.315H5.7a2,2,0,0,1-1.88-1.315h7.947A3.321,3.321,0,0,0,15.052,7.16L15.575,4.3a1.95,1.95,0,0,0-.433-1.615Zm-.875,1.382-.524,2.864A1.993,1.993,0,0,1,11.771,8.55H3.613L2.985,3.288H13.607a.67.67,0,0,1,.514.235A.651.651,0,0,1,14.267,4.063Z" transform="translate(860 314)" fill="#37424a"/>
    <circle id="Ellipse_1" data-name="Ellipse 1" cx="1.402" cy="1.402" r="1.402" transform="translate(863.298 327.197)" fill="#37424a"/>
    <circle id="Ellipse_2" data-name="Ellipse 2" cx="1.402" cy="1.402" r="1.402" transform="translate(869.895 327.197)" fill="#37424a"/>
  </g>
</svg>
