<svg id="Group_51" data-name="Group 51" xmlns="http://www.w3.org/2000/svg" width="15.865" height="16.689" viewBox="0 0 15.865 16.689">
  <path id="Path_22" data-name="Path 22" d="M12.517,8.344a4.167,4.167,0,0,1-3.61-6.258H2.95l-.029-.245A2.086,2.086,0,0,0,.85,0H.7a.7.7,0,1,0,0,1.391H.85A.7.7,0,0,1,1.54,2L2.5,10.141A3.477,3.477,0,0,0,5.95,13.212h7.262a.7.7,0,1,0,0-1.391H5.95A2.086,2.086,0,0,1,3.989,10.43h8.289A3.477,3.477,0,0,0,15.7,7.57l.165-.917A4.161,4.161,0,0,1,12.517,8.344Z" fill="#fff"/>
  <circle id="Ellipse_10" data-name="Ellipse 10" cx="1.391" cy="1.391" r="1.391" transform="translate(3.651 13.907)" fill="#fff"/>
  <circle id="Ellipse_11" data-name="Ellipse 11" cx="1.391" cy="1.391" r="1.391" transform="translate(10.604 13.907)" fill="#fff"/>
  <path id="Path_23" data-name="Path 23" d="M14.7,5.477h1.391V6.868a.7.7,0,0,0,1.391,0V5.477h1.391a.7.7,0,1,0,0-1.391H17.477V2.7a.7.7,0,0,0-1.391,0V4.086H14.7a.7.7,0,0,0,0,1.391Z" transform="translate(-4.091 -0.609)" fill="#fff"/>
</svg>
