<svg id="shopping-cart_1_" data-name="shopping-cart (1)" xmlns="http://www.w3.org/2000/svg" width="16.52" height="17" viewBox="0 0 16.52 17">
  <path id="Path_41" data-name="Path 41" d="M16.027,2.877a2.112,2.112,0,0,0-1.625-.76H2.993l-.03-.248A2.117,2.117,0,0,0,.862,0H.706a.706.706,0,0,0,0,1.411H.862a.706.706,0,0,1,.7.623l.971,8.256a3.528,3.528,0,0,0,3.5,3.117h7.369a.706.706,0,0,0,0-1.411H6.038a2.117,2.117,0,0,1-1.99-1.411h8.411a3.528,3.528,0,0,0,3.472-2.9l.554-3.072a2.113,2.113,0,0,0-.459-1.733Z" fill="#fff"/>
  <circle id="Ellipse_27" data-name="Ellipse 27" cx="1.5" cy="1.5" r="1.5" transform="translate(3 14)" fill="#fff"/>
  <circle id="Ellipse_28" data-name="Ellipse 28" cx="1.5" cy="1.5" r="1.5" transform="translate(10 14)" fill="#fff"/>
</svg>
