<svg id="shopping-cart-check" xmlns="http://www.w3.org/2000/svg" width="15.976" height="17" viewBox="0 0 15.976 17">
  <path id="Path_39" data-name="Path 39" d="M12.5,8.331a4.16,4.16,0,0,1-3.6-6.248H2.945l-.029-.244A2.083,2.083,0,0,0,.848,0H.694a.694.694,0,0,0,0,1.388H.848A.694.694,0,0,1,1.538,2l.955,8.122A3.471,3.471,0,0,0,5.94,13.19h7.25a.694.694,0,0,0,0-1.388H5.94a2.083,2.083,0,0,1-1.958-1.388h8.276a3.471,3.471,0,0,0,3.416-2.856l.165-.915A4.154,4.154,0,0,1,12.5,8.331Z" fill="#fff"/>
  <circle id="Ellipse_25" data-name="Ellipse 25" cx="1.5" cy="1.5" r="1.5" transform="translate(3 14)" fill="#fff"/>
  <circle id="Ellipse_26" data-name="Ellipse 26" cx="1.5" cy="1.5" r="1.5" transform="translate(10 14)" fill="#fff"/>
  <path id="Path_40" data-name="Path 40" d="M15.248,7.13a1.3,1.3,0,0,0,.934.417H16.2a1.3,1.3,0,0,0,.927-.384L20.1,4.2a.7.7,0,1,0-.984-.986L16.206,6.122,15.349,5.2a.695.695,0,0,0-1.016.948Z" transform="translate(-4.326 -0.919)" fill="#fff"/>
</svg>
