<svg xmlns="http://www.w3.org/2000/svg" width="453.077" height="201.307" viewBox="0 0 453.077 201.307">
  <g id="Group_112" data-name="Group 112" transform="translate(-541.461 -324)">
    <path id="Path-5" transform="translate(671 343)" fill="none" stroke="#979797" stroke-width="1" fill-rule="evenodd"/>
    <text id="YOUR" transform="translate(717 361)" fill="#072e2a" font-size="37" font-family="Nunito-Bold, Nunito" font-weight="700"><tspan x="0" y="0">YOUR</tspan></text>
    <g id="Group_110" data-name="Group 110" transform="translate(-9496 -2362.346)">
      <rect id="Rectangle_38" data-name="Rectangle 38" width="156.118" height="120.412" transform="translate(10136.577 2766.42)" fill="#ebebeb"/>
      <path id="Path_305" data-name="Path 305" d="M245.2,498.438c-.21,0-.39-26.847-.39-59.959s.18-59.959.39-59.959.39,26.847.39,59.959S245.41,498.438,245.2,498.438Z" transform="translate(10008.388 2387.556)" fill="#e0e0e0"/>
      <rect id="Rectangle_39" data-name="Rectangle 39" width="11.962" height="13.536" transform="translate(10267.497 2859.432)" fill="#fafafa"/>
      <rect id="Rectangle_40" data-name="Rectangle 40" width="17.733" height="25.692" transform="translate(10184.215 2766.735)" fill="#e0e0e0"/>
      <rect id="Rectangle_41" data-name="Rectangle 41" width="17.733" height="25.692" transform="translate(10184.215 2860.781)" fill="#e0e0e0"/>
      <rect id="Rectangle_42" data-name="Rectangle 42" width="131.33" height="101.29" transform="translate(10343.355 2786.363)" fill="#ebebeb"/>
      <path id="Path_306" data-name="Path 306" d="M427.24,459.18c-.14,0-.26-22.57-.26-50.42s.12-50.42.26-50.42.26,22.57.26,50.42S427.39,459.18,427.24,459.18Z" transform="translate(10014.535 2427.753)" fill="#e0e0e0"/>
      <rect id="Rectangle_43" data-name="Rectangle 43" width="10.07" height="11.38" transform="translate(10453.476 2864.593)" fill="#fafafa"/>
      <rect id="Rectangle_44" data-name="Rectangle 44" width="14.92" height="21.61" transform="translate(10383.415 2786.623)" fill="#e0e0e0"/>
      <rect id="Rectangle_45" data-name="Rectangle 45" width="14.92" height="21.61" transform="translate(10383.415 2865.733)" fill="#e0e0e0"/>
      <path id="Path_307" data-name="Path 307" d="M81.46,361.59c5.32-2.74,11.58-3.1,17.48-2.12,3.17.52,6.47,1.47,8.63,3.85s2.56,6.57.09,8.62c-1.48,1.22-3.53,1.4-5.45,1.38-4.62-.06-9.74-.87-13.43,1.91-2.11,1.59-3.51,4.22-6,5s-5.24-.69-6.54-2.91a10.15,10.15,0,0,1-.74-7.51,11.45,11.45,0,0,1,5.96-8.22Z" transform="translate(10014.535 2427.753)" fill="#ebebeb"/>
      <path id="Path_308" data-name="Path 308" d="M69.28,338.08c3.25,4.64,9.57,3.11,12.5.27s4.17-6.94,5.29-10.85c2.58-8.95,5.17-18.34,3.26-27.45a15.19,15.19,0,0,0-3.51-7.46,8,8,0,0,0-7.54-2.51c-3.19.84-5.17,4-6.6,6.93a65.29,65.29,0,0,0-6.46,28.07c0,4.53.51,9.27,3.06,13" transform="translate(10014.535 2427.753)" fill="#ebebeb"/>
      <path id="Path_309" data-name="Path 309" d="M60.36,344.74c3.53-4.19,4.2-10.29,2.63-15.54s-5.12-9.71-9.21-13.36a49.6,49.6,0,0,0-16.48-9.72,17.579,17.579,0,0,0-7.42-1.26,7.77,7.77,0,0,0-6.22,3.76c-1.74,3.31-.07,7.32,1.73,10.6a125.866,125.866,0,0,0,10.82,16.49c3.25,4.18,7,8.31,11.91,10.2s10.09,1.67,12.71-1.76" transform="translate(10014.535 2427.753)" fill="#ebebeb"/>
      <path id="Path_310" data-name="Path 310" d="M69.06,408.1a10.07,10.07,0,0,0,.3-2.1c.15-1.54.33-3.47.56-5.76a84,84,0,0,1,1.29-8.44,64.618,64.618,0,0,1,3.07-10,37,37,0,0,1,5.09-9,19.22,19.22,0,0,1,6.43-5.35,18.1,18.1,0,0,1,5.42-1.68,9.883,9.883,0,0,0,2.1-.31,9.721,9.721,0,0,0-2.13,0,16.37,16.37,0,0,0-5.65,1.47,18.94,18.94,0,0,0-6.79,5.4,35.67,35.67,0,0,0-5.28,9.19,61.149,61.149,0,0,0-3,10.13,73.347,73.347,0,0,0-1.13,8.55c-.18,2.45-.25,4.43-.28,5.8a10,10,0,0,0,0,2.1Z" transform="translate(10014.535 2427.753)" fill="#e0e0e0"/>
      <path id="Path_311" data-name="Path 311" d="M69.46,403.68a4.25,4.25,0,0,0,.06-1v-2.8c0-2.43,0-5.95.12-10.29.22-8.68,1-18,2.41-31.19,1.37-12.39,3.2-26.8,5.14-36.17.41-2.13.83-4.05,1.23-5.73s.69-3.14,1-4.31.48-2,.66-2.72a4.1,4.1,0,0,0,.17-1,4,4,0,0,0-.34.92c-.22.71-.49,1.59-.82,2.68s-.73,2.61-1.15,4.28-.9,3.59-1.35,5.72a317,317,0,0,0-5.41,33.56c-1.44,13.2-2.09,25.22-2.15,33.92,0,4.35,0,7.88.15,10.31.07,1.13.13,2.06.17,2.79a4.31,4.31,0,0,0,.11,1.03Z" transform="translate(10014.535 2427.753)" fill="#e0e0e0"/>
      <path id="Path_312" data-name="Path 312" d="M69.52,380.5a18.8,18.8,0,0,0,0-2.93c-.11-1.88-.37-4.59-.9-7.92A104.218,104.218,0,0,0,66,358.11a95.33,95.33,0,0,0-4.83-13.66A72.619,72.619,0,0,0,47,322.39a35.083,35.083,0,0,0-3.34-3.1c-.51-.44-1-.87-1.42-1.21L41,317.19a17.72,17.72,0,0,0-2.47-1.58c-.14.19,3.49,2.33,8.07,7.2a76.6,76.6,0,0,1,13.82,22,106.144,106.144,0,0,1,4.85,13.53q1.65,5.638,2.73,11.42c.6,3.29,1,6,1.16,7.84A18.359,18.359,0,0,0,69.52,380.5Z" transform="translate(10014.535 2427.753)" fill="#e0e0e0"/>
      <path id="Path_313" data-name="Path 313" d="M45.56,417.86l2.32,31.83H88.77l2.32-31.83Z" transform="translate(10014.535 2427.753)" fill="#ebebeb"/>
      <rect id="Rectangle_46" data-name="Rectangle 46" width="54.35" height="12.54" transform="translate(10056.146 2833.073)" fill="#ebebeb"/>
      <path id="Path_314" data-name="Path 314" d="M41.61,448.47v3.47H95.07v-3.47Z" transform="translate(10014.535 2427.753)" fill="#e0e0e0"/>
      <path id="Path_315" data-name="Path 315" d="M46.67,457.68l-2.5-6.12H93.12l-2.92,6.12Z" transform="translate(10014.535 2427.753)" fill="#e0e0e0"/>
      <path id="Path_316" data-name="Path 316" d="M90.33,428.26a1.479,1.479,0,0,1-.19.3c-.16.21-.37.48-.61.81l-2.38,3-.11.14-.1-.14-5.85-8.09h.33l-5.76,8.15-.18.26-.2-.24-6.83-8.13h.39l-.37.48-6.11,7.65-.21.26-.18-.27-5.77-8.15h.34l-7.1,8.08-.12.15-.1-.17L47,428.67c-.24-.4-.42-.73-.57-1a1.549,1.549,0,0,1-.18-.36,1.539,1.539,0,0,1,.24.32l.63.95,2.33,3.67h-.22l7-8.18.17-.21.16.22,5.82,8.12H62l6.09-7.67c.13-.16.26-.32.37-.47l.2-.25.2.24,6.81,8.15h-.38l5.82-8.11.17-.24.16.24c2.31,3.29,4.27,6.08,5.73,8.18h-.21l2.48-3c.27-.31.49-.56.66-.77a2.268,2.268,0,0,1,.23-.24Z" transform="translate(10014.535 2427.753)" fill="#f5f5f5"/>
      <path id="Path_317" data-name="Path 317" d="M91.66,417.65c0,.14-10.25.26-22.88.26s-22.88-.12-22.88-.26,10.24-.25,22.88-.25S91.66,417.51,91.66,417.65Z" transform="translate(10014.535 2427.753)" fill="#f5f5f5"/>
      <g id="freepik--Plant--inject-13" transform="translate(10014.535 2427.753)">
        <path id="Path_388" data-name="Path 388" d="M433.77,433.18a2.346,2.346,0,0,1,.18-.42c.14-.3.33-.7.56-1.21a29.546,29.546,0,0,0,1.67-4.84c1.1-4.3,1.49-10.87-.14-18.67a100.9,100.9,0,0,0-3.47-12.55c-1.46-4.45-3.17-9.17-4.56-14.28a55.378,55.378,0,0,1-2.25-16.42c.21-5.81,1.93-11.6,3.82-17.38S433.42,336,434,330.3a26.11,26.11,0,0,0-3.14-15.8c-2.5-4.61-5.65-8.56-8-12.64a44,44,0,0,1-4.81-12.16,45.329,45.329,0,0,1-.31-18.82,34.68,34.68,0,0,1,2-6.65,2.573,2.573,0,0,1-.12.44l-.4,1.27a51.133,51.133,0,0,0-1.22,5,46,46,0,0,0,.49,18.69,43.51,43.51,0,0,0,4.83,12c2.35,4,5.51,8,8.07,12.63a26.64,26.64,0,0,1,3.23,16.13c-.59,5.78-2.55,11.47-4.44,17.24s-3.59,11.5-3.8,17.21a54.63,54.63,0,0,0,2.2,16.26c1.37,5.08,3.05,9.8,4.5,14.27a98.252,98.252,0,0,1,3.4,12.62,42.867,42.867,0,0,1,0,18.81,27.838,27.838,0,0,1-1.79,4.83l-.62,1.19A2.059,2.059,0,0,1,433.77,433.18Z" fill="#263238"/>
        <path id="Path_389" data-name="Path 389" d="M426.06,305.89s-4.78-15.31,3.8-24.27a.53.53,0,0,1,.91.26C431.23,284.41,431.8,292.11,426.06,305.89Z" fill="#2ac768"/>
        <path id="Path_390" data-name="Path 390" d="M428.93,286.72a14.649,14.649,0,0,1-.32,2.82c-.32,1.95-.69,4.23-1.09,6.75s-.77,4.81-1.08,6.75a16.836,16.836,0,0,1-.5,2.8A11.858,11.858,0,0,1,426,303c.16-1.75.47-4.15.9-6.79s.9-5,1.27-6.73a12.4,12.4,0,0,1,.76-2.76Z" fill="#263238"/>
        <path id="Path_391" data-name="Path 391" d="M431.68,342s2.93-15.77,14.71-19.67a.53.53,0,0,1,.68.66C446.29,325.42,443.2,332.49,431.68,342Z" fill="#2ac768"/>
        <path id="Path_392" data-name="Path 392" d="M443.18,326.38a14.81,14.81,0,0,1-1.6,2.35l-4.13,5.45-4.1,5.47a16,16,0,0,1-1.75,2.23,11.841,11.841,0,0,1,1.4-2.48c1-1.47,2.36-3.45,4-5.58s3.13-4,4.26-5.36a12.88,12.88,0,0,1,1.92-2.08Z" fill="#263238"/>
        <path id="Path_393" data-name="Path 393" d="M428.5,381.53s-1.78-15.94,8.36-23.09a.52.52,0,0,1,.84.43C437.67,361.44,436.76,369.1,428.5,381.53Z" fill="#2ac768"/>
        <path id="Path_394" data-name="Path 394" d="M435,363.26a13.323,13.323,0,0,1-.85,2.71l-2.36,6.42c-.88,2.4-1.67,4.57-2.34,6.42a16.439,16.439,0,0,1-1,2.65,11.681,11.681,0,0,1,.62-2.78c.49-1.68,1.25-4,2.18-6.5s1.84-4.75,2.53-6.36A13.93,13.93,0,0,1,435,363.26Z" fill="#263238"/>
        <path id="Path_395" data-name="Path 395" d="M437.37,421.31s-1.2-16,9.18-22.78a.53.53,0,0,1,.83.46C447.26,401.56,446.08,409.19,437.37,421.31Z" fill="#2ac768"/>
        <path id="Path_396" data-name="Path 396" d="M444.49,403.29a13.851,13.851,0,0,1-.95,2.68c-.74,1.82-1.62,4-2.59,6.33s-1.82,4.5-2.56,6.33a15.559,15.559,0,0,1-1.13,2.61,12,12,0,0,1,.73-2.76c.55-1.66,1.39-3.94,2.41-6.41s2-4.69,2.75-6.27a13.359,13.359,0,0,1,1.34-2.51Z" fill="#263238"/>
        <path id="Path_397" data-name="Path 397" d="M419.18,292.44S405,285,404.69,272.61a.54.54,0,0,1,.83-.46C407.63,273.61,413.49,278.65,419.18,292.44Z" fill="#2ac768"/>
        <path id="Path_398" data-name="Path 398" d="M407.64,276.87a13.752,13.752,0,0,1,1.77,2.23c1.16,1.59,2.51,3.47,4,5.54l4,5.52a15.667,15.667,0,0,1,1.62,2.33,11.76,11.76,0,0,1-1.95-2.07c-1.13-1.34-2.61-3.26-4.17-5.43s-2.93-4.18-3.87-5.65a13.659,13.659,0,0,1-1.4-2.47Z" fill="#263238"/>
        <path id="Path_399" data-name="Path 399" d="M434.45,325.31s-14.64-6.55-15.67-18.92a.53.53,0,0,1,.8-.5C421.77,307.22,427.92,311.88,434.45,325.31Z" fill="#2ac768"/>
        <path id="Path_400" data-name="Path 400" d="M422,310.47a13.571,13.571,0,0,1,1.9,2.11l4.34,5.29,4.35,5.27a16,16,0,0,1,1.76,2.23,12.18,12.18,0,0,1-2.08-1.95c-1.2-1.28-2.8-3.1-4.49-5.17s-3.17-4-4.21-5.41A12.849,12.849,0,0,1,422,310.47Z" fill="#263238"/>
        <path id="Path_401" data-name="Path 401" d="M426,362s-10-12.5-5.33-24a.53.53,0,0,1,.94-.08C423,340.09,426.33,347.05,426,362Z" fill="#2ac768"/>
        <path id="Path_402" data-name="Path 402" d="M421.68,343.08a13.631,13.631,0,0,1,.74,2.75c.42,1.92.91,4.18,1.45,6.68s1.05,4.75,1.47,6.67a15.667,15.667,0,0,1,.55,2.79,12,12,0,0,1-1-2.68c-.49-1.69-1.09-4-1.65-6.66s-1-5-1.28-6.72a13,13,0,0,1-.28-2.83Z" fill="#263238"/>
        <path id="Path_403" data-name="Path 403" d="M436,405.11s-14.53-6.79-15.35-19.17a.53.53,0,0,1,.81-.5C423.61,386.81,429.68,391.58,436,405.11Z" fill="#2ac768"/>
        <path id="Path_404" data-name="Path 404" d="M423.77,390.06a14.891,14.891,0,0,1,1.86,2.15l4.25,5.35,4.26,5.35a15.679,15.679,0,0,1,1.72,2.26,11.779,11.779,0,0,1-2-2c-1.19-1.3-2.75-3.15-4.41-5.25s-3.1-4.05-4.12-5.48a12.227,12.227,0,0,1-1.56-2.38Z" fill="#263238"/>
        <path id="Path_405" data-name="Path 405" d="M464.91,342.07v1.35c0,1-.1,2.27-.17,3.89-.18,3.42-.45,8.19-.76,13.89h0c-1,5.8-4,12.23-8,18.48-2.91,4.6-6,8.78-8.6,12.67a89.352,89.352,0,0,0-6.38,10.7,44.9,44.9,0,0,0-3,7.82c-.25.95-.45,1.7-.56,2.21a4.65,4.65,0,0,1-.21.78,3.631,3.631,0,0,1,.1-.8c.07-.52.22-1.28.45-2.25a40.871,40.871,0,0,1,2.85-7.95A85.882,85.882,0,0,1,447,392.09c2.62-3.92,5.65-8.11,8.55-12.68,3.95-6.22,6.89-12.55,8-18.26h0c.4-5.69.73-10.45,1-13.87.13-1.62.24-2.91.32-3.88a7.619,7.619,0,0,1,.1-1,1.321,1.321,0,0,1-.06-.33Z" fill="#263238"/>
        <path id="Path_406" data-name="Path 406" d="M456.26,378.53s6.15-14.8-1.58-24.51a.53.53,0,0,0-.93.18C453.06,356.68,451.79,364.29,456.26,378.53Z" fill="#2ac768"/>
        <path id="Path_407" data-name="Path 407" d="M455.14,359.19a13,13,0,0,1,.49,2.8c.22,1.74.46,4.15.65,6.82s.28,5.09.28,6.85a11.6,11.6,0,0,1-.17,2.84,15.007,15.007,0,0,1-.25-2.83c-.13-2-.29-4.27-.46-6.82s-.33-4.86-.47-6.82a14.462,14.462,0,0,1-.07-2.84Z" fill="#263238"/>
        <g id="Group_106" data-name="Group 106" opacity="0.3">
          <path id="Path_408" data-name="Path 408" d="M456.26,378.53s6.15-14.8-1.58-24.51a.53.53,0,0,0-.93.18C453.06,356.68,451.79,364.29,456.26,378.53Z"/>
        </g>
        <path id="Path_409" data-name="Path 409" d="M437.21,414.22s4.93-15.26-3.57-24.3a.53.53,0,0,0-.91.25C432.25,392.69,431.6,400.39,437.21,414.22Z" fill="#2ac768"/>
        <path id="Path_410" data-name="Path 410" d="M434.52,395a12.27,12.27,0,0,1,.72,2.76c.36,1.71.79,4.1,1.2,6.74s.69,5.05.84,6.8a12,12,0,0,1,.05,2.85,17.085,17.085,0,0,1-.48-2.8c-.29-1.95-.63-4.23-1-6.76s-.73-4.81-1-6.76a14.476,14.476,0,0,1-.33-2.83Z" fill="#263238"/>
        <g id="Group_107" data-name="Group 107" opacity="0.3">
          <path id="Path_411" data-name="Path 411" d="M437.21,414.22s4.93-15.26-3.57-24.3a.53.53,0,0,0-.91.25C432.25,392.69,431.6,400.39,437.21,414.22Z"/>
        </g>
        <path id="Path_412" data-name="Path 412" d="M464.1,360.44s13.13-9.2,11.81-21.54a.53.53,0,0,0-.88-.34C473.12,340.28,468,346,464.1,360.44Z" fill="#2ac768"/>
        <g id="Group_108" data-name="Group 108" opacity="0.3">
          <path id="Path_413" data-name="Path 413" d="M464.1,360.44s13.13-9.2,11.81-21.54a.53.53,0,0,0-.88-.34C473.12,340.28,468,346,464.1,360.44Z"/>
        </g>
        <path id="Path_414" data-name="Path 414" d="M473.53,343.51a12.328,12.328,0,0,1-1.09,2.63c-.75,1.58-1.84,3.74-3.11,6.1s-2.49,4.45-3.43,5.93a11.86,11.86,0,0,1-1.67,2.3,14.735,14.735,0,0,1,1.3-2.52c.94-1.73,2.05-3.75,3.27-6l3.26-6a14.607,14.607,0,0,1,1.47-2.44Z" fill="#263238"/>
        <path id="Path_415" data-name="Path 415" d="M442.51,399.09s15.84-2.47,20.08-14.13a.53.53,0,0,0-.63-.7C459.49,385,452.33,387.85,442.51,399.09Z" fill="#2ac768"/>
        <g id="Group_109" data-name="Group 109" opacity="0.3">
          <path id="Path_416" data-name="Path 416" d="M442.51,399.09s15.84-2.47,20.08-14.13a.53.53,0,0,0-.63-.7C459.49,385,452.33,387.85,442.51,399.09Z"/>
        </g>
        <path id="Path_417" data-name="Path 417" d="M458.43,388.05a12.839,12.839,0,0,1-2.14,1.87c-1.37,1.1-3.3,2.56-5.47,4.12s-4.2,2.89-5.7,3.81a11.572,11.572,0,0,1-2.52,1.33,15.438,15.438,0,0,1,2.29-1.69l5.58-3.94,5.57-4a13.292,13.292,0,0,1,2.39-1.5Z" fill="#263238"/>
        <path id="Path_418" data-name="Path 418" d="M427.39,428.25l-4.62,31.1h28.8l-3.73-31.1Z" fill="#455a64"/>
        <path id="Path_419" data-name="Path 419" d="M449,437.88c0,.17-5.2.3-11.61.3s-11.62-.13-11.62-.3a114.707,114.707,0,0,1,11.62-.3,114.579,114.579,0,0,1,11.61.3Z" fill="#263238"/>
        <path id="Path_420" data-name="Path 420" d="M449.56,440.36c0,.17-5.37.3-12,.3s-12-.13-12-.3,5.37-.3,12-.3S449.56,440.19,449.56,440.36Z" fill="#263238"/>
      </g>
      <g id="freepik--Box--inject-2" transform="translate(10069.798 2475.523)">
        <path id="Path_299" data-name="Path 299" d="M126.11,338.69H254.55V405a6.47,6.47,0,0,1-6.47,6.47H132.58a6.47,6.47,0,0,1-6.47-6.47Z" fill="#2ac768"/>
        <path id="Path_300" data-name="Path 300" d="M126.11,338.69H217l-11.18-14.31c-1.23-1.57-4.27-2.84-6.8-2.84H117.28c-2.52,0-3.58,1.27-2.35,2.84Z" fill="#2ac768"/>
        <path id="Path_301" data-name="Path 301" d="M126.11,338.69H217l-11.18-14.31c-1.23-1.57-4.27-2.84-6.8-2.84H117.28c-2.52,0-3.58,1.27-2.35,2.84Z" opacity="0.2"/>
        <path id="Path_302" data-name="Path 302" d="M254.55,338.69H163.67l11.18-9.33c1.23-1,4.27-1.85,6.8-1.85h81.73c2.53,0,3.58.83,2.35,1.85Z" fill="#2ac768"/>
        <path id="Path_303" data-name="Path 303" d="M163.67,338.69h90.88V405a6.47,6.47,0,0,1-6.47,6.47H170.14a6.47,6.47,0,0,1-6.47-6.47Z" fill="#fff" opacity="0.2"/>
        <path id="Path_304" data-name="Path 304" d="M137.39,338.69v45.48l3.14-2.48,2.21,2.48,1.92-2.76,1.97,2.76,2.74-2.07,3.02,2.07V338.69Z" fill="#fff" opacity="0.5"/>
      </g>
      <g id="freepik--Floor--inject-13" transform="translate(10014.535 2427.753)">
        <path id="Path_325" data-name="Path 325" d="M464.66,459.35c0,.15-96.12.26-214.65.26s-214.67-.11-214.67-.26,96.1-.26,214.67-.26S464.66,459.21,464.66,459.35Z" fill="#263238"/>
      </g>
    </g>
    <text id="cart_is_empty" data-name="cart is empty" transform="translate(721 384)" fill="#072e2a" font-size="14" font-family="Montserrat-SemiBold, Montserrat" font-weight="600"><tspan x="0" y="0">cart is empty</tspan></text>
  </g>
</svg>
