<svg xmlns="http://www.w3.org/2000/svg" width="195.5" height="214" viewBox="0 0 195.5 214">
  <g id="Group_77" data-name="Group 77" transform="translate(-670.5 -419)">
    <text id="cart_is_empty" data-name="cart is empty" transform="translate(721 522)" fill="#2ac768" font-size="14" font-family="Montserrat-Regular, Montserrat"><tspan x="0" y="0">cart is empty</tspan></text>
    <text id="_" data-name="+" transform="translate(806 443)" fill="#2ac768" font-size="22" font-family="SegoeUI-Bold, Segoe UI" font-weight="700"><tspan x="0" y="0">+</tspan></text>
    <text id="_-copy" data-name="+-copy" transform="translate(828 621)" fill="#2ac768" font-size="22" font-family="SegoeUI-Bold, Segoe UI" font-weight="700"><tspan x="0" y="0">+</tspan></text>
    <text id="_-copy-2" data-name="+-copy-2" transform="translate(693 509)" fill="#2ac768" font-size="22" font-family="SegoeUI-Bold, Segoe UI" font-weight="700"><tspan x="0" y="0">+</tspan></text>
    <text id="_2" data-name="*" transform="translate(734 627)" fill="#2ac768" font-size="22" font-family="SegoeUI-Bold, Segoe UI" font-weight="700"><tspan x="0" y="0">*</tspan></text>
    <text id="_-copy-2-2" data-name="*-copy" transform="translate(855 509)" fill="#2ac768" font-size="22" font-family="SegoeUI-Bold, Segoe UI" font-weight="700"><tspan x="0" y="0">*</tspan></text>
    <circle id="Oval" cx="6" cy="6" r="6" transform="translate(835 537)" fill="none" stroke="#2ac768" stroke-width="1"/>
    <circle id="Oval-Copy-2" cx="4.5" cy="4.5" r="4.5" transform="translate(730 437)" fill="none" stroke="#2ac768" stroke-width="1"/>
    <circle id="Oval-Copy-3" cx="4.5" cy="4.5" r="4.5" transform="translate(671 539)" fill="none" stroke="#2ac768" stroke-width="1"/>
    <rect id="Rectangle" width="55" height="10" rx="2" transform="translate(737 578)" fill="none" stroke="#2ac768" stroke-width="2"/>
    <circle id="Oval-2" data-name="Oval" cx="4" cy="4" r="4" transform="translate(744 544)" fill="#2ac768"/>
    <circle id="Oval-Copy" cx="4" cy="4" r="4" transform="translate(778 544)" fill="#2ac768"/>
    <path id="Path-3" d="M14,17.5c5.275-2.462,10.2-2.583,14.725,0" transform="translate(744 544)" fill="none" stroke="#2ac768" stroke-linecap="round" stroke-linejoin="round" stroke-width="2" fill-rule="evenodd"/>
    <path id="Path-4" d="M93.5,48V71.265" transform="translate(671 422)" fill="none" stroke="#2ac768" stroke-linecap="round" stroke-linejoin="round" stroke-width="3" fill-rule="evenodd"/>
    <path id="Path-4-Copy" d="M128.691,64.418,124.915,78.51" transform="translate(723.876 368.155) rotate(30)" fill="none" stroke="#2ac768" stroke-linecap="round" stroke-linejoin="round" stroke-width="3" fill-rule="evenodd"/>
    <path id="Path-4-Copy-2" d="M59.521,64.588,55.745,78.68" transform="translate(637.593 507.966) rotate(-60)" fill="none" stroke="#2ac768" stroke-linecap="round" stroke-linejoin="round" stroke-width="3" fill-rule="evenodd"/>
    <path id="Path" d="M154.636,111.5H32.708c0,.137.006.288.011.455.013.513.018.747.018,1.045v7c0,19.041,21.752,36.5,43.264,36.5h35c21.582,0,43.615-17.505,43.615-36.5v-7.5c0-.3.006-.541.018-.926C154.634,111.547,154.635,111.523,154.636,111.5Z" transform="translate(671 422)" fill="none" stroke="#2ac768" stroke-width="3" fill-rule="evenodd"/>
    <ellipse id="Oval-3" data-name="Oval" cx="37" cy="1.5" rx="37" ry="1.5" transform="translate(728 601)" fill="#aeeac5"/>
  </g>
</svg>
