<svg xmlns="http://www.w3.org/2000/svg" width="393.681" height="425.893" viewBox="0 0 393.681 425.893">
  <g id="Group_60" data-name="Group 60" transform="translate(0.738 0.385)" opacity="0.25">
    <path id="Path_5" data-name="Path 5" d="M4746.534,2867.471c-6.121,23.07-19.012,53.4-33.521,68.113-9.7,9.841-22.238,28.962-22.184,48.328.063,24.292,18.429,49.188,59.065,57.416,71.546,14.486,98.86,38.058,132.692,37s137.082.161,134.88,46.974-21.63,48.276-39.7,95.249-54.491,72.427-87.49,70.847-63.365-8.888-91.1-48.395-91.858-17.316-134.562-23.637c-11.317-1.675-24.367-5.274-37.715-9.753" transform="translate(-4626.059 -2867.471)" fill="none" stroke="#2ac768" stroke-width="3"/>
    <path id="Path_6" data-name="Path 6" d="M4700.011,2866.743c-.8,10.346-6.983,21.831-16.57,31.081-19.632,18.943-26.731-1.478-53.8-18.025a62.569,62.569,0,0,0-10.548-4.916" transform="translate(-4618.674 -2864.217)" fill="none" stroke="#2ac768" stroke-width="3"/>
    <path id="Path_7" data-name="Path 7" d="M4620.447,2866.349c11.055,9.875,19.674,22.021,20.588,36,.966,14.752-7.973,28.963-20.291,41.413" transform="translate(-4620.186 -2819.263)" fill="none" stroke="#2ac768" stroke-width="3"/>
    <path id="Path_8" data-name="Path 8" d="M4620.4,2920.738c14.394-2.66,30.5-.112,46.776,13.5,24.786,20.721,78.4,26.584,118.758,36.669,37.678,9.414,62.33,23.447,79.481,27.9,35.218,9.15,80.905-1.665,90.888,28.007s-46.31,118.41-69.6,124.511-60.729-10.261-80.973-42.706-88.912-7.245-144.062-19a335.892,335.892,0,0,1-41.477-11.451" transform="translate(-4620.186 -2770.522)" fill="none" stroke="#2ac768" stroke-width="3"/>
    <path id="Path_9" data-name="Path 9" d="M4619.146,2947.315s69.362,17.885,104.925,23.235c40.735,6.128,83.273,11.176,99.137,34.969s5.519,27.464-3.965,29.921-69.217-8.291-97.7-2.523-67.413,9.012-102.021-7.931" transform="translate(-4618.888 -2741.448)" fill="none" stroke="#2ac768" stroke-width="3"/>
  </g>
</svg>
