<svg xmlns="http://www.w3.org/2000/svg" width="506.506" height="484.615" viewBox="0 0 506.506 484.615">
  <g id="Group_59" data-name="Group 59" transform="translate(1.506 1.512)" opacity="0.25">
    <path id="Path_10" data-name="Path 10" d="M5288.168,2867.863c-8.642,17.33-19.716,33.918-33.192,43.964-17.463,13.018-39.751,26.038-41.319,41.32-1.919,18.623,22.957,37.187,57.993,25.373,62.343-21.023,130.92-50.36,166.556-14.064s60.053,58.4-13.528,100.967-140.812,158.3-90.657,172.816,64.178-3.464,126.54,26.892,78.2-19.8,152.441,32.666c32.814,23.188,41.19,38.16,60.712,42.895,13.193,3.2,29.039,1.59,43.945-3.74" transform="translate(-5213.553 -2860.836)" fill="none" stroke="#2ac768" stroke-width="3"/>
    <path id="Path_11" data-name="Path 11" d="M5654.73,3173.192c-8.331,10.021-19.984,19.166-34.593,15.774-25.231-5.857-41.227-27.146-83.879-51.626s-109.49,9.777-157.664-19.259-84.306-48.5-56.918-90.079,58.4-71.932,116.476-39.265,94.2,25.655,133.469,43.143c32.315,14.392,60.845,24.315,83.559,24.808" transform="translate(-5150.884 -2746.613)" fill="none" stroke="#2ac768" stroke-width="3"/>
    <path id="Path_12" data-name="Path 12" d="M5407.213,3012.808c34.393,11.264,35.369,12.417,66.335,16.731s75.89,8.376,89.851,37.311-12.944,19.29-49.24,18.529-81.475,17.767-122.086-1.269-32.323-15.73-41.372-21.828c-9.849-6.453-18.512-27.6-1.776-48.225C5374.053,2983.091,5372.821,3001.543,5407.213,3012.808Z" transform="translate(-5133.571 -2732.615)" fill="none" stroke="#2ac768" stroke-width="3"/>
    <path id="Path_13" data-name="Path 13" d="M5429.317,2868.817c5.571,1.784,11.746,3.507,18.455,5.113,104.836,25.093-58.551,157.252-10.595,208.554,33.09,35.4,127.773,47.7,183.518,51.941" transform="translate(-5116.841 -2860.836)" fill="none" stroke="#2ac768" stroke-width="3"/>
    <path id="Path_14" data-name="Path 14" d="M5442.573,2873.106a129.284,129.284,0,0,0,10.243,14.563c20.362,24.253,31.115,11.092,35.592,39.287s-12.66,51.46-58.455,27.628c-20.658-10.75-47.291-25.434-75.354-27.628-45.354-3.548-89.884,6.861-85.027-22.621a124.976,124.976,0,0,1,10.1-32.045" transform="translate(-5178.204 -2865.094)" fill="none" stroke="#2ac768" stroke-width="3"/>
    <path id="Path_15" data-name="Path 15" d="M5304.068,2869.349a49.643,49.643,0,0,0,5.029,10.805c9.992,16.528,25.282,11.1,35.729,11.519,15.2.619,25.031-9.38,27.57-22.723C5373.687,2862.178,5299.537,2854.694,5304.068,2869.349Z" transform="translate(-5157.139 -2860.906)" fill="none" stroke="#2ac768" stroke-width="3"/>
  </g>
</svg>
