<svg xmlns="http://www.w3.org/2000/svg" width="909.617" height="312" viewBox="0 0 909.617 312">
  <path id="Intersection_2" data-name="Intersection 2" d="M733.135,312s-60.87-81.081-63.3-153.276-73.717-24.282-111.015-64.6S521.861,0,521.861,0H877.856a32,32,0,0,1,31.761,32V280a32,32,0,0,1-32,32Zm-444.8,0-17.459-32.282a15.3,15.3,0,0,1,6.491-20.874,15.835,15.835,0,0,1,21.232,6.381L323.9,312Zm-49.011,0-54.4-100.581a15.3,15.3,0,0,1,6.491-20.874,15.835,15.835,0,0,1,21.232,6.382l54.977,101.655A15.174,15.174,0,0,1,268.156,312ZM17.46,312,1.84,283.12a15.306,15.306,0,0,1,6.492-20.874,15.835,15.835,0,0,1,21.232,6.382L53.021,312ZM114.289,87a15.259,15.259,0,1,1,15.257,15A15.13,15.13,0,0,1,114.289,87ZM95.47,58.074,64.062,0H99.623l23.57,43.582A15.3,15.3,0,0,1,116.7,64.455,15.85,15.85,0,0,1,95.47,58.074Zm-65.1-24L11.945,0h35.56L58.1,19.582A15.306,15.306,0,0,1,51.6,40.456a15.851,15.851,0,0,1-21.231-6.382Z" transform="translate(0)" fill="#ffcf02"/>
</svg>
