<svg id="Group_61" data-name="Group 61" xmlns="http://www.w3.org/2000/svg" width="116.039" height="54" viewBox="0 0 116.039 54">
  <g id="Article">
    <g id="Top-Nav">
      <g id="Group_1" data-name="Group 1">
        <g id="Logo">
          <path id="Fill-1" d="M0,12V40H16V34.037H6.363V12Z" transform="translate(0 -0.141)" fill="#fff" fill-rule="evenodd"/>
          <g id="Group-18" transform="translate(16.904)">
            <path id="Fill-2" d="M30.99,28.007c-.081-1.535-1.127-3.393-4.025-3.393a3.815,3.815,0,0,0-3.984,3.393Zm5.554,6.664c-.966,3.473-4.145,6.381-9.216,6.381-5.514,0-10.424-3.958-10.424-10.7,0-6.462,4.789-10.582,9.981-10.582,6.2,0,10.021,3.837,10.021,10.3a12.81,12.81,0,0,1-.121,1.9H22.86a4.334,4.334,0,0,0,4.548,3.877,3.864,3.864,0,0,0,4.025-2.625Z" transform="translate(-16.904 -0.141)" fill="#fff" fill-rule="evenodd"/>
            <path id="Fill-4" d="M44.151,40.446H38.034V20.374H43.95v2.3a6.548,6.548,0,0,1,5.594-2.827c5.031,0,7.284,3.594,7.284,8v12.6H50.711V28.9c0-1.979-1.047-3.473-3.26-3.473a3.252,3.252,0,0,0-3.3,3.514Z" transform="translate(-16.904 -0.141)" fill="#fff" fill-rule="evenodd"/>
            <path id="Fill-6" d="M68.541,35.4c2.374,0,4.507-1.7,4.507-5.008,0-3.352-2.133-4.968-4.507-4.968s-4.508,1.615-4.508,4.968C64.033,33.7,66.166,35.4,68.541,35.4ZM79,36.852c0,1.818.121,3.15.161,3.595H73.29a13.807,13.807,0,0,1-.161-1.938,6.443,6.443,0,0,1-5.353,2.383c-5.634,0-9.9-4.362-9.9-10.541,0-5.978,4.025-10.461,9.7-10.461,3.421,0,4.91,1.292,5.393,2.059V11.206H79Z" transform="translate(-16.904 -0.141)" fill="#fff" fill-rule="evenodd"/>
            <g id="Group-10" transform="translate(63.147 19.627)">
              <path id="Fill-8" d="M15.146,10.756c0-3.393-2.173-4.968-4.508-4.968-2.294,0-4.507,1.575-4.507,4.968,0,3.352,2.214,5.008,4.507,5.008,2.334,0,4.508-1.616,4.508-5.008m6.117,0A10.362,10.362,0,0,1,10.638,21.419,10.386,10.386,0,0,1,.013,10.756,10.353,10.353,0,0,1,10.638.134,10.329,10.329,0,0,1,21.263,10.756" transform="translate(-0.013 -0.134)" fill="#fff" fill-rule="evenodd"/>
            </g>
            <g id="Group-13" transform="translate(77.617)">
              <path id="Fill-11" d="M15.275,1.051A11.165,11.165,0,0,1,21.1,14.366c-1.791,6.328-7.123,11.4-11.548,15.979a13.554,13.554,0,0,0-4.123-9.767C3.077,18.264,1.092,16.74.3,13.289-1.65,4.82,7.429-2.478,15.275,1.051" transform="translate(-0.031 -0.141)" fill="#fff" fill-rule="evenodd"/>
            </g>
            <path id="Fill-14" d="M98.625,16.132h3.7V7.273h-3.7Z" transform="translate(-16.904 -0.141)" fill="#f2256c" fill-rule="evenodd"/>
            <path id="Fill-16" d="M103.466,16.132h3.7V4.415h-3.7Z" transform="translate(-16.904 -0.141)" fill="#f39c12" fill-rule="evenodd"/>
            <path id="Fill-17" d="M108.307,16.132h3.7v-10h-3.7Z" transform="translate(-16.904 -0.141)" fill="#007aff" fill-rule="evenodd"/>
          </g>
        </g>
      </g>
    </g>
  </g>
  <text id="cart" transform="translate(77 51)" fill="#fff" font-size="13" font-family="Quicksand-Medium, Quicksand" font-weight="500"><tspan x="0" y="0">cart</tspan></text>
</svg>
